<svg id="paint_brush_Image" data-name="paint brush Image" xmlns="http://www.w3.org/2000/svg" viewBox="0 0 1999.99 184.99"><defs><style>.cls-1{fill:#fff;}</style></defs><title>paint-brush-top</title><path class="cls-1" d="M1530.92,105.84a2.62,2.62,0,0,1-1.09.34,33.09,33.09,0,0,1-3.45,0,2.51,2.51,0,0,1-1.41-.54,2.46,2.46,0,0,0-2.18-.36,2.72,2.72,0,0,0-1,.55,2.12,2.12,0,0,1-1.08.34c-1.28,0-2.56,0-3.84.06a3.68,3.68,0,0,0-2.15.67,1.32,1.32,0,0,1-1.44,0c-.22-.11-.43-.26-.66-.37a1.14,1.14,0,0,0-.75-.09.91.91,0,0,0-.37.08,2.85,2.85,0,0,0-1.43,1.7,2.35,2.35,0,0,1-.56,1c-.43.48-.89.92-1.35,1.36a3,3,0,0,1-1.32.73c-.35.11-.51.29-.72.83a3.77,3.77,0,0,1-1.4,1.77,1.12,1.12,0,0,1-1.08.16,1,1,0,0,1-.34-.15,2.91,2.91,0,0,0-1.78-.61l-3.07,0c-.38,0-.77,0-1.15,0a2.17,2.17,0,0,1-1.06-.39,3.87,3.87,0,0,0-1.35-.7,1.42,1.42,0,0,1-.68-.34c-.38-.34-.78-.66-1.15-1a2.24,2.24,0,0,0-1-.51,2.58,2.58,0,0,1-1-.53,2.1,2.1,0,0,0-1-.48,7.11,7.11,0,0,1-1.86-.4c-.56-.26-.58-.21-1.41.07a3.22,3.22,0,0,1-.74.19c-.89,0-1.79,0-2.68.08a10.93,10.93,0,0,0-1.15.06,1.79,1.79,0,0,0-1,.44,7.74,7.74,0,0,1-1.44,1.25,1.16,1.16,0,0,1-1.11.08,2.49,2.49,0,0,1-1.49-2.07,3.77,3.77,0,0,0-.12-.76c-.09-.27-.31-.47-.52-.43a13,13,0,0,0-2.18.73c-.11,0-.19.16-.3.23a2.41,2.41,0,0,1-1.44.43c-1.66,0-3.33,0-5,0l-3.07,0a2.35,2.35,0,0,0-1.41.52,2.76,2.76,0,0,1-1.8.52h-.77a2.47,2.47,0,0,1-1.42-.48,3.05,3.05,0,0,0-.32-.22,1.2,1.2,0,0,0-1.42,0,2.81,2.81,0,0,1-1.75.68,18.49,18.49,0,0,0-2.68.11,1.51,1.51,0,0,0-.7.3c-.39.32-.78.65-1.16,1a1.57,1.57,0,0,1-.63.4,5,5,0,0,0-1.71.85,1.91,1.91,0,0,1-1.09.3l-3.06.07a4.81,4.81,0,0,0-.76.12,1.07,1.07,0,0,0-.35.14,17,17,0,0,0-2.3,2,2.68,2.68,0,0,1-1,.6,5,5,0,0,0-1.35.71,1.51,1.51,0,0,1-.7.3c-.38,0-.76.1-1.14.15a1.65,1.65,0,0,0-.71.26,3.29,3.29,0,0,1-1.8.58c-3.58,0-7.16,0-10.74,0l-.38,0a2.39,2.39,0,0,1-1.4-.55c-.38-.34-.75-.7-1.15-1a1.63,1.63,0,0,0-.7-.27c-.63-.08-1.28-.09-1.91-.17a2.18,2.18,0,0,1-1-.42,2.56,2.56,0,0,0-1-.52,3.76,3.76,0,0,1-1.36-.67,1.44,1.44,0,0,0-.72-.24,8.8,8.8,0,0,0-1.92,0,1.51,1.51,0,0,0-.72.21,4.43,4.43,0,0,1-1.35.69,5.14,5.14,0,0,0-1.07.41,1,1,0,0,1-1-.15,5.37,5.37,0,0,1-.58-.49l-1.46-1.25a1.61,1.61,0,0,0-1.05-.39c-1-.05-2,0-3.07,0a3,3,0,0,0-1.8.54,2.36,2.36,0,0,1-1.08.37c-.51,0-1,.06-1.53.08a2,2,0,0,0-1.09.31,3.67,3.67,0,0,1-2.18.59c-.64,0-1.28,0-1.91.07a2.2,2.2,0,0,0-1.06.41,2.56,2.56,0,0,1-1.41.52c-1.15,0-2.3,0-3.45.12a1.93,1.93,0,0,0-1.07.36,2.94,2.94,0,0,1-1.79.59h-5a11,11,0,0,0-1.15,0,3.29,3.29,0,0,0-1.09.34,3,3,0,0,1-1.81.53l-5.76,0a2.74,2.74,0,0,0-1.45.41,3.56,3.56,0,0,1-1.82.52l-1.15,0h-4.6q-1,0-1.92,0a2.8,2.8,0,0,0-1.77.63,1.76,1.76,0,0,1-1.06.38c-.89,0-1.79,0-2.69.06s-2,0-3.07,0a3.76,3.76,0,0,0-2.19.55,2.29,2.29,0,0,1-1.08.34c-.39,0-.77,0-1.15,0H1325.1c-.89,0-1.79,0-2.68,0a3.2,3.2,0,0,0-1.1.29,3.37,3.37,0,0,1-2.17.6H1318a3.44,3.44,0,0,1-2.17-.62,1.91,1.91,0,0,0-1.09-.27,2.45,2.45,0,0,0-1.47.34l-.33.19a2.87,2.87,0,0,1-2.22.22c-.37-.09-.71-.28-1.1-.34a.9.9,0,0,0-.7.17,2,2,0,0,1-1.1.28l-3.84,0c-.51,0-1,0-1.53,0a1.76,1.76,0,0,0-1.07.35,3.26,3.26,0,0,1-2.14.7c-1.28,0-2.56,0-3.83.06a2.05,2.05,0,0,0-1.09.33,3.39,3.39,0,0,1-1.79.6,3.06,3.06,0,0,0-1.44.46,2.6,2.6,0,0,1-1.45.43c-.64,0-1.28,0-1.91,0a2.74,2.74,0,0,1-1.79-.55,1.6,1.6,0,0,0-.69-.31,3.13,3.13,0,0,1-1.58-1,1.75,1.75,0,0,1-.51-1c0-.25-.07-.51-.11-.76.36-.8.7-1.73,1.59-2,3.07-.85,2.51-2.83,1.66-4.94a2.41,2.41,0,0,0-.57-.84c-2-1.18-3.89-3.22-6.43-1a2.5,2.5,0,0,1-1,.4c-2.41-.69-4.79-1.26-6.6,1.22a2.78,2.78,0,0,1-1.06.18,6.56,6.56,0,0,1-1.52-.55c-3.14.83-6,2.77-9.38,2.54a2.52,2.52,0,0,0-1,.5,1.39,1.39,0,0,1-1.38,0,15.64,15.64,0,0,0-1.42-1.13,1.63,1.63,0,0,1-.73-.78h0c-.46-.41-.31-1.12-.77-1.53l-.36-.11a2.3,2.3,0,0,0-2.14.44,2.78,2.78,0,0,1-1.08.34l-3.44,0-1.91,0a2.63,2.63,0,0,0-1.43.45,3,3,0,0,1-2.19.37,3.34,3.34,0,0,1-.71-.26,1.25,1.25,0,0,0-1.1,0,4.83,4.83,0,0,1-1.05.43,2.05,2.05,0,0,0-1,.57c-.64.62-1.31,1.2-1.94,1.83a2,2,0,0,1-1.38.54,2.28,2.28,0,0,1-1.77-.54c-.19-.17-.37-.35-.56-.51s-.39-.33-.6-.48a1.45,1.45,0,0,0-1.44-.08,7.6,7.6,0,0,0-.65.4,2.56,2.56,0,0,1-2.21.08,3.54,3.54,0,0,1-.64-.39,2.41,2.41,0,0,0-1.46-.33,1.62,1.62,0,0,0-1.26.73c-.19.31-.26.71-.63.92a5.32,5.32,0,0,1-.69.3,3.24,3.24,0,0,0-.66.36,2.6,2.6,0,0,1-3.19,0,1.57,1.57,0,0,0-.69-.29,4.56,4.56,0,0,0-1.52,0,1.37,1.37,0,0,0-.67.33,4.27,4.27,0,0,1-.67.35c-2.9.11-4.94.93-4.39,4.51.45,3-1.35,3.08-3.54,2.38a3.77,3.77,0,0,1-.89-.7,1.71,1.71,0,0,1-.5-1c-.05-.37-.09-.74-.13-1.12a1.05,1.05,0,0,0-.74-.77,3.75,3.75,0,0,0-.75-.09,1.37,1.37,0,0,0-1.44,1c-.29.77-.31.76-1.3,1.17a2.84,2.84,0,0,0-.65.38,9.81,9.81,0,0,0-1.11,1c-.32.39-.66.76-1,1.12-.18.18-.39.33-.58.49-1.6,1-3.37,0-5,.42a2.14,2.14,0,0,1-2.28-.15,2.61,2.61,0,0,0-.59-.35l-.21,0h0l.24,0a1.86,1.86,0,0,1,.51.33,2.24,2.24,0,0,0,.63.42c.63.2,1.17-.13,1.74-.26,1.46.16,3.19-.73,4.18,1.12.55.36,1.24.27,1.8.58a.71.71,0,0,1,.43.6,1,1,0,0,1-.28,1l-.26.29a1.92,1.92,0,0,1-1.31.7q-.77.08-1.53.09a1.83,1.83,0,0,0-1.08.34,3.56,3.56,0,0,1-2.11.78,2.77,2.77,0,0,0-1.4.56,2.12,2.12,0,0,1-1.1.31c-1.27,0-2.55,0-3.83,0l-1.15,0a3.27,3.27,0,0,0-1.82.5,2.68,2.68,0,0,1-1.46.4c-1.79,0-3.58,0-5.36.09a1.5,1.5,0,0,0-1,.42,2.28,2.28,0,0,1-1.39.57l-.39,0c-.25,0-.51,0-.76,0a2.19,2.19,0,0,1-1.41-.5,2.3,2.3,0,0,0-1.41-.53c-.77,0-1.53,0-2.3,0a2.31,2.31,0,0,0-1.42.51,2.24,2.24,0,0,1-1.4.52l-3.45.05a8.3,8.3,0,0,0-2.28.17,1,1,0,0,0-.63.86,2.22,2.22,0,0,0,.21.72,4.28,4.28,0,0,1,.37.66,1.55,1.55,0,0,1,0,1.12c-.18.47-.58.83-.69,1.35a2.21,2.21,0,0,1-.53,1c-.78.85-1.6,1.66-2.44,2.44a2.41,2.41,0,0,1-1,.55,2.65,2.65,0,0,0-1,.49,3.94,3.94,0,0,1-1.34.71,8,8,0,0,0-1,.57,2.16,2.16,0,0,1-.72.23,13.07,13.07,0,0,1-1.53.08h-10.75l-2.3,0a2.77,2.77,0,0,0-1.44.45,3,3,0,0,1-1.45.42l-5.76,0c-.51,0-1,0-1.53.05a2.14,2.14,0,0,0-1.08.36,3.24,3.24,0,0,1-1.79.59c-.76,0-1.53,0-2.29.1a1.77,1.77,0,0,0-1,.43,2,2,0,0,1-1,.48l-.76.09a2.81,2.81,0,0,0-1.41.54,1.82,1.82,0,0,1-1.08.33c-1.53,0-3.07.05-4.6.1a3.18,3.18,0,0,0-.74.17,1.09,1.09,0,0,0-.33.19c-.7.58-1.66.64-2.34,1.26a1.63,1.63,0,0,1-1.07.36l-1.92,0c-.81,0-.9,0-2.07-.78a1.38,1.38,0,0,0-1.1-.1,4.71,4.71,0,0,0-.65.4,1.88,1.88,0,0,1-.65.39,3.11,3.11,0,0,0-1.35.69c-.27.26-.6.48-.88.74a3.32,3.32,0,0,1-1.36.66c-.49.16-.79.64-1.28.8a1.14,1.14,0,0,1-.75,0,3.56,3.56,0,0,1-1-.61,1.11,1.11,0,0,0-1.42,0,4.06,4.06,0,0,1-1,.59,1,1,0,0,1-.74,0c-.33-.19-.62-.44-.94-.65a1.16,1.16,0,0,0-1.1,0,2.17,2.17,0,0,0-.33.19,4.09,4.09,0,0,1-1.32.74c-.63.17-1.06.71-1.69.88a3.81,3.81,0,0,0-1.38.62,1.81,1.81,0,0,1-1.09.31l-1.92,0h-3.06a2.81,2.81,0,0,0-1.78.57,2.47,2.47,0,0,1-1.45.45c-1,0-2,0-3.06.08a2.47,2.47,0,0,0-1.43.49,2.52,2.52,0,0,1-1.43.47c-.89,0-1.79,0-2.68,0l-1.54,0a2.05,2.05,0,0,0-1.09.3,3.84,3.84,0,0,1-2.19.58c-1.15,0-2.3,0-3.45,0a2.85,2.85,0,0,0-1.78.58,1.67,1.67,0,0,1-1.81-.05.72.72,0,0,0-.7-.14,1.85,1.85,0,0,1-1.49-.09,2.61,2.61,0,0,0-1.1-.29c-1.53,0-3.06-.07-4.6,0a1.83,1.83,0,0,0-1,.41c-.39.32-.75.69-1.11,1a1.61,1.61,0,0,1-.63.43,9.39,9.39,0,0,0-1.73.81,1.67,1.67,0,0,1-.72.21c-.9,0-1.79,0-2.69,0s-1.53,0-2.3,0a3.45,3.45,0,0,0-2.16.63,1.29,1.29,0,0,1-.72.24c-.63,0-1.27.1-1.91.07a3.8,3.8,0,0,0-2.5.8,1.34,1.34,0,0,1-.71.24c-.13,0-.26,0-.38,0h-10a2.24,2.24,0,0,1-1.42-.48,2.72,2.72,0,0,0-1.39-.57l-.39,0a2.85,2.85,0,0,1-1.4-.54,2.66,2.66,0,0,0-1.08-.36,17.13,17.13,0,0,0-2.68,0,2.14,2.14,0,0,0-1.08.36,3,3,0,0,1-1.8.53l-1.54,0a21.81,21.81,0,0,0-2.68.07,2,2,0,0,0-1,.44,2.08,2.08,0,0,1-.63.43,10.9,10.9,0,0,0-1.72.83,1.65,1.65,0,0,1-.72.23c-.63.06-1.28.06-1.91.12a1.91,1.91,0,0,0-1.06.41,2,2,0,0,1-1.06.4c-.76,0-1.53.06-2.3.06H979.93c-.77,0-1.54,0-2.3,0a2.51,2.51,0,0,0-1.42.49,2.82,2.82,0,0,1-1.42.52c-.51,0-1,.05-1.53.12a2.32,2.32,0,0,0-1.06.42,2.52,2.52,0,0,1-1.43.47c-.64,0-1.27,0-1.91,0a3,3,0,0,0-1.8.55,1.44,1.44,0,0,1-.71.27,10.94,10.94,0,0,1-1.14.09,3.66,3.66,0,0,0-2.18.61A2.19,2.19,0,0,1,962,172c-.51,0-1,0-1.53,0h-3.84l-1.53,0a3.06,3.06,0,0,0-1.81.52,2.51,2.51,0,0,1-1.42.49c-.64,0-1.28,0-1.92,0a3.11,3.11,0,0,0-1.8.53A2,2,0,0,1,947,174c-.89,0-1.79,0-2.68.1a2.07,2.07,0,0,0-1.07.4,2.58,2.58,0,0,1-1.42.48c-.26,0-.51,0-.77,0a3.31,3.31,0,0,0-2.13.72,2,2,0,0,1-1.08.33c-.64,0-1.28,0-1.92,0l-4.22,0a2.77,2.77,0,0,0-1.45.44,3.25,3.25,0,0,1-1.82.48l-1.53,0c-1.54,0-3.07-.06-4.6.06a1.56,1.56,0,0,0-.73.22c-.22.13-.45.23-.68.36a1.78,1.78,0,0,1-.72.22,19.65,19.65,0,0,1-2.3.08c-1.66,0-3.33,0-5,0a2.62,2.62,0,0,0-1.77.57,2.06,2.06,0,0,1-1.06.41c-.38,0-.76.14-1.13.21a1.3,1.3,0,0,0-.68.34,1.83,1.83,0,0,1-1,.44,8.62,8.62,0,0,1-1.14.08h-3.45q-1,0-1.92,0a2.83,2.83,0,0,0-1.45.41,2.86,2.86,0,0,1-1.45.46l-1.91,0h-5c-.51,0-1,0-1.53.06a2,2,0,0,0-1.07.38,1.59,1.59,0,0,1-2.1,0c-.3-.23-.59-.48-.88-.73a2.24,2.24,0,0,0-1.38-.57q-1.73-.07-3.45,0a2.34,2.34,0,0,0-1.39.58c-.3.24-.57.51-.87.75a2.59,2.59,0,0,1-1.42.52h-5.75a3.77,3.77,0,0,1-2.16-.66,1.33,1.33,0,0,0-.72-.25l-1.53,0a2.48,2.48,0,0,0-1.43.46,2.62,2.62,0,0,1-1.44.46c-2,.06-4.09.07-6.13,0-.13,0-.25-.06-.38-.08a1.18,1.18,0,0,1-1-1,2.13,2.13,0,0,1,.75-2l.58-.5a1.19,1.19,0,0,1,.7-.27c1.15-.12,2.3,0,3.45-.07a15,15,0,0,0,2.68-.12,1,1,0,0,0,.65-.35l.24-.3c.27-.55,1.19-.83.7-1.69-.2-.33-.4-.66-.59-1s0-1.2.45-1.28c.12,0,.24-.08.37-.1s.5-.07.76-.09a2.65,2.65,0,0,0,2-1.59,1.9,1.9,0,0,0,.12-.36,2.34,2.34,0,0,0,0-.38,2.1,2.1,0,0,0-.84-2c-.29-.31-.49-.33-1-.12l-.34.17a2.65,2.65,0,0,1-1.1.29c-.77,0-1.54,0-2.31,0a2.13,2.13,0,0,1-1.39-.56,1.51,1.51,0,0,0-1-.41c-1.15-.05-2.3-.05-3.45-.06l-3.84,0a3.2,3.2,0,0,1-1.8-.57,1.63,1.63,0,0,0-.7-.27,13.7,13.7,0,0,0-1.92-.07,3.91,3.91,0,0,0-2.54.65,1.36,1.36,0,0,1-1.44-.13,6.9,6.9,0,0,1-.6-.47,4.1,4.1,0,0,0-.92-.69,2.35,2.35,0,0,0-.72-.24,11.44,11.44,0,0,0-2.68,0c-.5.06-1,.17-1.22.75,0,.12-.09.23-.14.35a3.7,3.7,0,0,1-1.22,1.44.69.69,0,0,1-.34.17c-.49.12-1,.22-1.49.33a.77.77,0,0,0-.69.78.74.74,0,0,0,.51.9,1.91,1.91,0,0,1,1.35,1.22,2.59,2.59,0,0,0,.57,1c.45.45.89.92,1.34,1.38.71.73,1.43,1.46,2.19,2.14a1.74,1.74,0,0,0,1.05.4c.51,0,1,0,1.53.06a2.36,2.36,0,0,1,1.41.53,3.47,3.47,0,0,0,1,.48,1.25,1.25,0,0,1,.72.84,2.28,2.28,0,0,1,0,1.13,1.68,1.68,0,0,1-.29.7c-.5.58-1,1.11-1.56,1.68a2.36,2.36,0,0,1-1,.6c-.24.09-.49.16-.72.26a6.41,6.41,0,0,1-1.35.7,5.22,5.22,0,0,0-1.36.67,1.79,1.79,0,0,1-.74.21c-.12,0-.25.05-.38.05h-6.14a2.63,2.63,0,0,1-1.44-.45,2.84,2.84,0,0,0-1.44-.45l-1.53-.08a1.83,1.83,0,0,1-.71-.25,3.33,3.33,0,0,0-2.18-.61c-.89,0-1.79,0-2.68-.05a2.58,2.58,0,0,1-1.43-.48,2.22,2.22,0,0,0-1.4-.52L817,182a3.07,3.07,0,0,1-1.81-.51,2.71,2.71,0,0,0-.34-.18,1.51,1.51,0,0,0-.72-.21c-.64,0-1.28-.07-1.92-.07h-7.67l-1.92,0a2,2,0,0,1-1.1-.29,3.84,3.84,0,0,0-2.18-.6h-4.61a3.31,3.31,0,0,0-1.48.34.76.76,0,0,1-.7.12,6.06,6.06,0,0,0-2.22-.52,1.68,1.68,0,0,1-1.05-.42,1.77,1.77,0,0,0-.32-.21,1.83,1.83,0,0,0-.71-.25,15,15,0,0,0-2.68,0,2.73,2.73,0,0,0-1.09.34,7.16,7.16,0,0,0-.66.39,1.55,1.55,0,0,1-.73.21,4.58,4.58,0,0,0-1.85.42,1.09,1.09,0,0,1-1.09,0,2.51,2.51,0,0,0-1.09-.33c-.64,0-1.28-.07-1.91-.12a1.29,1.29,0,0,1-.71-.27,2.8,2.8,0,0,0-1.77-.63h-3.83a2.93,2.93,0,0,0-1.78.61,1.23,1.23,0,0,1-.7.28c-.26,0-.51.05-.77,0a1.82,1.82,0,0,1-1.09-.28,3.52,3.52,0,0,0-2.15-.67c-1.92,0-3.84,0-5.75-.06a2.31,2.31,0,0,1-1.1-.33c-.22-.13-.41-.3-.64-.41a2.11,2.11,0,0,0-.73-.21c-1,0-2,0-3.07-.06-.51,0-1,0-1.53,0a3.09,3.09,0,0,1-1.43-.51,1.52,1.52,0,0,0-1.44-.17c-.36.11-.69.35-1.1.25a3.55,3.55,0,0,1-.71-.26,2.1,2.1,0,0,0-.74-.17c-.51,0-1,0-1.54,0-1.4,0-2.81,0-4.21-.06a1.79,1.79,0,0,1-1.06-.41,1.4,1.4,0,0,0-.67-.35c-.38-.06-.75-.14-1.13-.18a2.24,2.24,0,0,1-1.07-.39,5.22,5.22,0,0,0-1.33-.73,4.67,4.67,0,0,1-1-.52,1.94,1.94,0,0,0-1.08-.34c-.76,0-1.53,0-2.3,0a2.75,2.75,0,0,0-1.43.46,2.4,2.4,0,0,1-1.44.45H722.1a3.54,3.54,0,0,1-2.15-.67,1.14,1.14,0,0,0-1.09-.06c-.24.11-.47.22-.69.34a3,3,0,0,1-1.85.34,1.5,1.5,0,0,1-.71-.24,3.22,3.22,0,0,0-2.16-.64c-.51,0-1,0-1.54,0a3.21,3.21,0,0,1-1.8-.55,2,2,0,0,0-1.08-.33l-3.45-.09a2,2,0,0,1-1.37-.61c-.27-.26-.57-.51-.83-.79a2.08,2.08,0,0,0-1.36-.61l-.76-.08a1.92,1.92,0,0,1-1-.49c-.3-.24-.57-.52-.85-.78a2.48,2.48,0,0,0-1-.57,4.26,4.26,0,0,1-1.34-.73,1,1,0,0,0-.69-.3c-.51,0-1-.07-1.53-.08L691,168a3,3,0,0,1-1.81-.52,1.8,1.8,0,0,0-.7-.29,7.65,7.65,0,0,0-2.29,0,1.82,1.82,0,0,0-.71.28,3.5,3.5,0,0,1-1.8.56H678a2.83,2.83,0,0,1-1.79-.56,1.67,1.67,0,0,0-.71-.27l-1.91-.13a2,2,0,0,1-1.07-.36,2.73,2.73,0,0,0-1.42-.52,3,3,0,0,1-1.77-.64,2.21,2.21,0,0,0-1.42-.47c-.64,0-1.28,0-1.92-.05a3.23,3.23,0,0,1-1.8-.55,2,2,0,0,0-1.08-.34c-.51,0-1,0-1.53,0H648.09c-.51,0-1,0-1.53,0a2.35,2.35,0,0,1-.74-.17,5.44,5.44,0,0,0-2.92-.7l-1.92,0a2.71,2.71,0,0,1-1.76-.62,1.91,1.91,0,0,0-1.07-.39,35.31,35.31,0,0,0-4.6,0,2.82,2.82,0,0,0-1.09.33,1.5,1.5,0,0,1-1.45-.07,2.36,2.36,0,0,0-1.11-.27l-4.22,0-3.45,0a3.64,3.64,0,0,1-2.17-.64,2,2,0,0,0-1.09-.3c-.64,0-1.28,0-1.92,0-1.28,0-2.56,0-3.83,0a3.94,3.94,0,0,1-2.19-.61,2.08,2.08,0,0,0-1.09-.27c-1.15,0-2.31,0-3.46-.09a2.12,2.12,0,0,1-.72-.21,5.44,5.44,0,0,1-.67-.37,1.4,1.4,0,0,0-1.46-.06,1.41,1.41,0,0,1-1.43,0,4,4,0,0,0-1.47-.38,2.58,2.58,0,0,1-1.4-.56,2.37,2.37,0,0,0-1.43-.46,33.26,33.26,0,0,0-3.46,0,1.77,1.77,0,0,0-1,.43,2.65,2.65,0,0,1-1,.55,4.21,4.21,0,0,0-1.33.73,1.51,1.51,0,0,1-.69.32,2.57,2.57,0,0,0-1,.48,3.15,3.15,0,0,1-1,.47,2.19,2.19,0,0,0-1,.55c-.38.34-.73.72-1.12,1a1.64,1.64,0,0,1-1,.42l-3.46.06-1.91,0a2.52,2.52,0,0,0-1.45.43c-.53.4-1.21.44-1.73.8a5.07,5.07,0,0,1-1.36.67,2.43,2.43,0,0,0-1,.56,1.79,1.79,0,0,1-1,.44c-.63.07-1.27.1-1.91.15a1.32,1.32,0,0,0-.71.27c-.4.32-.79.64-1.17,1a2.54,2.54,0,0,1-1,.54,2.83,2.83,0,0,0-1,.51,2.2,2.2,0,0,1-1.4.54c-.76,0-1.53,0-2.3.06a11.06,11.06,0,0,0-1.15,0,2.52,2.52,0,0,0-1.08.36c-.83.49-.83.52-1.39.55a4.21,4.21,0,0,0-2.15.72,1.11,1.11,0,0,1-1.09,0c-.23-.11-.45-.25-.67-.37a2.64,2.64,0,0,0-1.09-.32,4,4,0,0,1-1.84-.48.78.78,0,0,0-.73,0,4.41,4.41,0,0,1-1.84.48,2.61,2.61,0,0,0-1.42.51,2.49,2.49,0,0,1-1.46.37,1.86,1.86,0,0,1-1.1-.24,3.7,3.7,0,0,0-2.17-.65c-1.4,0-2.81,0-4.22,0-.38,0-.76,0-1.14-.09a1.2,1.2,0,0,1-.68-.32c-1-1-2-2-3-3s-1.78-1.83-2.67-2.75a2.5,2.5,0,0,1-.54-1,3,3,0,0,0-.56-1c-.57-.7-1.25-1.28-1.84-2a2,2,0,0,1-.46-1c-.11-.63-.06-1.27-.2-1.9a1.14,1.14,0,0,0-1.09-.88,3.86,3.86,0,0,0-.76,0,1.89,1.89,0,0,0-.71.26c-.52.37-1,.8-1.51,1.18a1.81,1.81,0,0,1-1.08.33,2.71,2.71,0,0,1-1.48-.3,5.23,5.23,0,0,0-1.38-.63,1.75,1.75,0,0,1-.67-.36,18.83,18.83,0,0,1-1.88-1.91,1,1,0,0,1-.18-.33,4.43,4.43,0,0,0-.91-1.66c-.26-.28-.47-.61-.71-.9a1.71,1.71,0,0,1-.39-1.06c0-.9,0-1.79-.05-2.68,0-1.28,0-2.56-.06-3.84a1.58,1.58,0,0,0-.43-1c-.51-.57-1-1.14-1.57-1.68a1.61,1.61,0,0,0-1-.45c-.64-.06-1.28-.07-1.92-.07h-7.67c-.51,0-1,0-1.53-.09a1.22,1.22,0,0,1-.69-.29c-.39-.34-.76-.69-1.15-1a2.05,2.05,0,0,0-1-.48l-.76-.13a2.75,2.75,0,0,1-1.38-.6,2.3,2.3,0,0,0-1.08-.35,2.66,2.66,0,0,0-1.8.46,2.13,2.13,0,0,1-1.42.49c-1.41,0-2.82.07-4.22,0a1.85,1.85,0,0,1-1.08-.34,5.62,5.62,0,0,0-1.72-.8,2.62,2.62,0,0,1-1.09-1,2.32,2.32,0,0,1,.07-.38,1.9,1.9,0,0,1,2-1.41,2,2,0,0,1,1.41.48,2.28,2.28,0,0,0,1.4.56c.25,0,.51,0,.76,0h.39a1.55,1.55,0,0,0,1.48-1c.33-.73.42-.78,1-1l.37-.11a2,2,0,0,0,.65-.38,2.07,2.07,0,0,1,1.06-.42c.63,0,1.27-.06,1.91-.13a1.35,1.35,0,0,0,.7-.28,4.26,4.26,0,0,0,1-1.16,1,1,0,0,0-.36-1.31,6.38,6.38,0,0,1-1.65-.93,2.32,2.32,0,0,0-2.54.14,2.68,2.68,0,0,1-1.37.59c-.38,0-.76.1-1.14.16a1.38,1.38,0,0,0-.67.34,2,2,0,0,1-1.06.39l-1.15,0-1.54,0a1.93,1.93,0,0,0-.73.19,5.27,5.27,0,0,1-1.39.63,13,13,0,0,1-1.53.1c-1.92,0-3.83,0-5.75,0a4.08,4.08,0,0,0-1.84.46,1,1,0,0,1-1.07,0,2,2,0,0,0-1.07-.4l-1.15,0-2.3,0c-.49,0-.59,0-1.43-.48a3.06,3.06,0,0,0-1.45-.43q-.76,0-1.53-.09a1.43,1.43,0,0,1-.71-.24,3.52,3.52,0,0,0-2.18-.6l-4.6,0a2.08,2.08,0,0,1-1.41-.49,3.62,3.62,0,0,0-.33-.2,1.81,1.81,0,0,0-.71-.27,11.2,11.2,0,0,0-3.06,0,3.18,3.18,0,0,0-1.34.69,1.07,1.07,0,0,1-1.08.08,1.19,1.19,0,0,1-.33-.19,3.09,3.09,0,0,0-2.15-.67c-1,0-2,0-3.07,0a3.12,3.12,0,0,0-2.14.67,1.89,1.89,0,0,1-.68.34,4.21,4.21,0,0,0-1.36.67,1.62,1.62,0,0,1-.72.24c-.51.05-1,.06-1.53.08a26.65,26.65,0,0,0-2.68.07,1.62,1.62,0,0,0-.72.24,1,1,0,0,1-1.37-.17c-.09-.08-.2-.16-.29-.25a1.27,1.27,0,0,1-.22-1.4,5.19,5.19,0,0,1,.72-.89,1.93,1.93,0,0,1,1-.59,6.4,6.4,0,0,0,1.37-.66,2.68,2.68,0,0,1,.73-.22,9.38,9.38,0,0,1,1.91,0,3.27,3.27,0,0,1,1.1.34,1,1,0,0,0,1.05-.12c.3-.23.57-.51.88-.74a2.06,2.06,0,0,1,1-.46c.51-.05,1-.09,1.53-.11a2.49,2.49,0,0,0,1.41-.52,2.61,2.61,0,0,1,1.42-.51c.51,0,1,0,1.53-.08a2.32,2.32,0,0,0,1.36-.65,3.9,3.9,0,0,0,1.14-1.5.88.88,0,0,0-.34-.62.76.76,0,0,0-.36-.11,21.81,21.81,0,0,0-2.68-.08c-1,0-2.05,0-3.07,0a3.18,3.18,0,0,0-2.15.66,2.08,2.08,0,0,1-1.06.39c-.51.06-1,.08-1.53.1a2.57,2.57,0,0,0-1.09.33,3.53,3.53,0,0,0-.32.21,2.25,2.25,0,0,1-1.08.34l-4.22,0c-1,0-2,0-3.07,0a2.88,2.88,0,0,0-1.45.43,2.85,2.85,0,0,1-1.45.43l-3.07,0c-.77,0-1.54,0-2.3,0a1.48,1.48,0,0,0-1.05.39,1.73,1.73,0,0,1-.31.22,2.46,2.46,0,0,1-2.55,0,2.46,2.46,0,0,0-1.73-.69l-1.15,0a2.43,2.43,0,0,1-1.42-.48,1.33,1.33,0,0,0-.7-.28,1.49,1.49,0,0,0-1.09.22,2.73,2.73,0,0,1-3.23.06,3.1,3.1,0,0,0-1.45-.43,2.73,2.73,0,0,1-.75-.12,1.93,1.93,0,0,1-.67-.34,6.16,6.16,0,0,1-.76-.86,1.39,1.39,0,0,1,.06-1.44,4.09,4.09,0,0,1,.81-.8,1.39,1.39,0,0,1,.7-.28c.51,0,1-.1,1.53-.11a2.83,2.83,0,0,0,1.77-.63,2.06,2.06,0,0,1,1.06-.4,13.33,13.33,0,0,1,2.68,0,1.78,1.78,0,0,1,1,.45,2.37,2.37,0,0,0,1,.56,5.32,5.32,0,0,1,1.07.4,1,1,0,0,0,1.05,0,1.23,1.23,0,0,1,.33-.19,5.5,5.5,0,0,0,2.06-1,1.08,1.08,0,0,1,1.39.18,13.28,13.28,0,0,0,1.46,1.24,1.42,1.42,0,0,0,.71.25,16.57,16.57,0,0,0,3.07,0,1.58,1.58,0,0,0,1-.5c.36-.36.76-.69,1.15-1a1.32,1.32,0,0,1,1.73.1c.19.18.36.37.55.54a7,7,0,0,0,.57.52,1.73,1.73,0,0,0,1.05.38c.51,0,1,0,1.53,0a2.62,2.62,0,0,0,1.1-.3,3.61,3.61,0,0,1,2.16-.67A4,4,0,0,0,439,120a3.84,3.84,0,0,1,2.47-.89,1.66,1.66,0,0,0,.7-.29,2.88,2.88,0,0,1,1-.55,3.42,3.42,0,0,0,1.38-.64,2.15,2.15,0,0,1,.67-.35,1.9,1.9,0,0,0,.36-.12,1.38,1.38,0,0,0,.59-.93,1.31,1.31,0,0,0-.61-.92,4.42,4.42,0,0,1-1-.49,2.43,2.43,0,0,0-1.39-.55,4.83,4.83,0,0,1-1.14-.17,1.09,1.09,0,0,1-.35-.15c-.77-.66-1.4-1.48-2.24-2.08-.44-.3-.68-.34-1-.1a5.72,5.72,0,0,1-1.23.9.89.89,0,0,1-.73,0,5.52,5.52,0,0,1-.62-.46c-.29-.24-.56-.53-.87-.74a1.09,1.09,0,0,0-.74-.08.7.7,0,0,0-.59.44,1.19,1.19,0,0,0,0,1.08c.41.49.82,1,1.24,1.46a1.46,1.46,0,0,1,.39,1,3.21,3.21,0,0,1,0,.76c-.1.58-.37,1-.93,1a3.63,3.63,0,0,1-1.14,0,1.5,1.5,0,0,1-.69-.31c-.65-.62-1.28-1.26-1.91-1.88a2.71,2.71,0,0,0-1.33-.74,2.81,2.81,0,0,1-1-.52,1.52,1.52,0,0,0-1.79,0,7.12,7.12,0,0,1-.67.36,1.09,1.09,0,0,1-1.09,0,3.37,3.37,0,0,1-.31-.21,2.8,2.8,0,0,0-1.82-.46,1.9,1.9,0,0,0-1.08.35,2.88,2.88,0,0,1-2.17.52,1.34,1.34,0,0,1-.71-.24,3.26,3.26,0,0,0-2.15-.67c-1.79,0-3.58,0-5.37,0-.26,0-.51.06-.76.08a1.18,1.18,0,0,0-1,1,3.93,3.93,0,0,0,.3,1.86.75.75,0,0,1-.81,1,6.34,6.34,0,0,1-.75-.07.76.76,0,0,1-.36-.14c-.75-.68-1.49-1.4-2.26-2.07-.27-.24-.57-.47-1-.19-.64.43-1.48.43-2.12.87a.79.79,0,0,1-1-.07c-.3-.23-.6-.47-.88-.73-.64-.62-1.28-1.26-1.91-1.89-.36-.36-.71-.73-1.08-1.08a2.1,2.1,0,0,0-1.38-.58,2.52,2.52,0,0,0-1.8.49,2.15,2.15,0,0,1-1.06.4l-.77.09a1.77,1.77,0,0,0-1,.5,5.09,5.09,0,0,0-.74.87,1.15,1.15,0,0,0-.1,1.09,3.13,3.13,0,0,0,.38.66,2.46,2.46,0,0,1,.31,1.83,1,1,0,0,1-1.06.88,1.16,1.16,0,0,1-.37-.07,8.19,8.19,0,0,0-1.35-.69,4.48,4.48,0,0,1-1.36-.69,1.76,1.76,0,0,0-1.47-.17l-.36.12c-2.58.55-1.5,2.66-1.9,4.19-.27,1,1.22,3.55-1.86,2.72-.06-.38-.13-.76-.18-1.14a2,2,0,0,0-.74-1.28l-.29-.25a2.54,2.54,0,0,0-2.53-.32,3,3,0,0,0-.68.37,2.12,2.12,0,0,1-1.09.31c-.89,0-1.79,0-2.68,0h-8.05c-.38,0-.76.07-1.14.11a.89.89,0,0,0-.58,1.19c.23.45.46.64.84.67s1,.09,1.53.11a2.5,2.5,0,0,1,1.69.78,1.79,1.79,0,0,0,.28.27,1.27,1.27,0,0,1,0,1.72,6.68,6.68,0,0,1-.57.49.86.86,0,0,1-1.06.08,3.15,3.15,0,0,0-1.46-.41,4,4,0,0,1-1.46-.42c-.6-.28-.63-.29-1.06,0a2.89,2.89,0,0,1-1.45.44c-.89,0-1.79,0-2.68,0s-1.53,0-2.3,0a2.62,2.62,0,0,0-1.44.44,1.61,1.61,0,0,1-2.1,0,2.35,2.35,0,0,0-1.43-.48l-3.44-.09a2.22,2.22,0,0,1-1.08-.37,3.47,3.47,0,0,0-.33-.18c-.24-.14-.45-.08-.63.19-.34.66-2.08-.12-1.52,1.47h0a1.47,1.47,0,0,0,.77.59,3.17,3.17,0,0,0,.72.23,3.72,3.72,0,0,1,2.15.69,1.91,1.91,0,0,0,1.08.35c.51,0,1,.06,1.53.09a2.39,2.39,0,0,1,1.06.39c.11.07.2.16.31.23a2.57,2.57,0,0,0,2.21.24,7,7,0,0,0,.7-.3c.41-.16.42-.18,1,.13a6,6,0,0,0,1.86.39,2.09,2.09,0,0,1,1,.48l.27.27a2,2,0,0,1,.61,1.36,3.33,3.33,0,0,1-.16,1.13,1.07,1.07,0,0,1-1,.47,2.07,2.07,0,0,1-.7-.27,3.24,3.24,0,0,0-1.82-.49l-3.07,0c-1,0-2.05,0-3.07,0a3.32,3.32,0,0,1-2.5-.77,2.09,2.09,0,0,0-1.1-.3c-.38,0-.76,0-1.15,0-.76,0-1.53,0-2.3,0a4.38,4.38,0,0,1-2.54-.7,1.23,1.23,0,0,0-1.09,0,1.61,1.61,0,0,0-.33.2,2.85,2.85,0,0,1-1.43.49,33.28,33.28,0,0,1-3.46,0,2.73,2.73,0,0,1-1.08-.34c-.23-.12-.41-.31-.64-.41-.47-.19-1-.34-1.44-.51s-.56-.22-1.4.1a3.29,3.29,0,0,1-1.12.23,2.93,2.93,0,0,0-1.77.62,1.83,1.83,0,0,1-.34.18,1.14,1.14,0,0,1-.36.1l-1.92.12a2,2,0,0,0-1.34.65,1.61,1.61,0,0,1-1.05.38,2.58,2.58,0,0,1-1.82-.44c-.36-.27-.6-.19-1,.16s-.5.66-.4,1a2.23,2.23,0,0,0,1,1.1.76.76,0,0,0,.38.06c.51,0,1,.07,1.53.07,1.79,0,3.58,0,5.37,0a4.16,4.16,0,0,0,2.54-.69,1.14,1.14,0,0,1,1.09,0c.23.11.46.22.68.35a2.26,2.26,0,0,0,1.1.32c1.53.05,3.06.07,4.6.1a1.21,1.21,0,0,1,.71.24,3.62,3.62,0,0,1,.33.2,3,3,0,0,0,1.77.62,2.11,2.11,0,0,1,1.36.63,3.45,3.45,0,0,1,.26.28c.32.37.32.72,0,1l-.55.53a1.28,1.28,0,0,1-1.42.19,3.5,3.5,0,0,0-2.51-.73h-.38a2.48,2.48,0,0,0-1.44.45,2.65,2.65,0,0,1-1.41.53c-.25,0-.51,0-.77,0a3.54,3.54,0,0,0-2.15.69,1.29,1.29,0,0,1-.7.27c-.26,0-.51.07-.76.07l-6.91,0a2,2,0,0,1-1.38-.56c-.47-.43-.94-.86-1.42-1.28a.72.72,0,0,0-.37-.09,1,1,0,0,0-.95.5,1.49,1.49,0,0,0,.07,1.1,8.93,8.93,0,0,0,.77.86c.34.37.69.75,1.05,1.11a2.56,2.56,0,0,1,.78,2.07,2.09,2.09,0,0,1-.35,1.07,3.47,3.47,0,0,1-.25.29l-.49.59a4.24,4.24,0,0,1-2.17,1.5c-.34.09-.43.21-.68.85a1.3,1.3,0,0,1-1.11.89c-.26,0-.51.07-.76.12a1.8,1.8,0,0,0-1,.46c-1.28,1.25-2.6,2.46-3.83,3.76-.7.75-1.46,1.43-2.21,2.13a3.32,3.32,0,0,1-1.32.74,1.54,1.54,0,0,0-.64.4,10.43,10.43,0,0,1-.88.74,2.24,2.24,0,0,1-1.75.66,2.45,2.45,0,0,0-1.67.81c-.27.27-.58.51-.85.77a1.59,1.59,0,0,1-1,.47c-.89,0-1.79.06-2.68,0a4.09,4.09,0,0,0-2.55.65,2,2,0,0,1-.71.27,6.19,6.19,0,0,0-1.33.74c-.44.24-.93.41-1.4.61a5.06,5.06,0,0,1-2,1c-.65.28-.66.32-1.45,0a2.11,2.11,0,0,0-.73-.21l-2.69,0-1.92,0a2.82,2.82,0,0,1-1.42-.49c-.8-.51-.89-.53-1.4-.54s-1.28-.06-1.92-.06a3,3,0,0,1-1.79-.59,2,2,0,0,0-1.07-.35c-.51,0-1,0-1.53-.07a2.22,2.22,0,0,1-1.09-.34,3.36,3.36,0,0,0-.67-.37,4.12,4.12,0,0,1-1.68-.85c-.47-.21-.95-.39-1.4-.63a4.81,4.81,0,0,0-1.69-.85,7,7,0,0,1-.65-.39c-.3-.24-.6-.48-.88-.75a2.52,2.52,0,0,0-1.72-.71,2.32,2.32,0,0,1-1.67-.82c-.17-.19-.36-.36-.53-.55a.93.93,0,0,1-.18-.34,3.57,3.57,0,0,0-.94-1.63c-.36-.36-.69-.76-1.06-1.11a2.05,2.05,0,0,0-1-.56,2.76,2.76,0,0,1-1.33-.72,3.19,3.19,0,0,0-.91-.68.87.87,0,0,0-.74-.05,7.85,7.85,0,0,1-1.41.57,1.68,1.68,0,0,0-.67.36,2.37,2.37,0,0,1-1.43.46c-1.54.07-3.07,0-4.6.08a1.14,1.14,0,0,0-.7.27c-.39.34-.8.65-1.16,1-.73.71-1.43,1.46-2.17,2.17a7.78,7.78,0,0,1-.89.72,1.39,1.39,0,0,1-1.09.17,3,3,0,0,0-1.83-.44c-1,0-2,0-3.07,0a7.28,7.28,0,0,1-1.14-.08,1.77,1.77,0,0,1-1-.46,6.91,6.91,0,0,0-.57-.51,2.67,2.67,0,0,0-1.28-.8,2.9,2.9,0,0,1-1.28-.8c-.26-.28-.55-.53-.83-.8a1.61,1.61,0,0,0-1-.42c-.89-.05-1.79-.05-2.68-.11a2.13,2.13,0,0,1-1.09-.32,3,3,0,0,0-.66-.4,6.13,6.13,0,0,1-1.7-.84,1.9,1.9,0,0,0-1.08-.34l-2.3-.09a2.51,2.51,0,0,1-1.43-.48,2.86,2.86,0,0,0-1.43-.47l-3.84,0a3,3,0,0,0-1.8.54,2.33,2.33,0,0,1-1.45.4,2.68,2.68,0,0,1-1.11-.25,6.14,6.14,0,0,0-1.35-.69,5.65,5.65,0,0,1-1.37-.68,2,2,0,0,0-.73-.21,14.91,14.91,0,0,0-3.06,0,1.48,1.48,0,0,0-.7.28c-.89.72-1.58,1.66-2.51,2.35a1.31,1.31,0,0,1-1.1.1,3.64,3.64,0,0,1-.63-.42,2.59,2.59,0,0,0-2.2-.31.75.75,0,0,0-.35.16c-1.22,1.12-2.45,2.23-3.62,3.41a3.16,3.16,0,0,1-.7.27c-.51.07-1,.05-1.53.1s-.76.11-1.14.16a.8.8,0,0,1-1,0,2.71,2.71,0,0,1-.41-.64l-.84-1.27c-.07-.51-.12-1-.23-1.52a2,2,0,0,0-.32-.68c-.14-.21-.35-.38-.5-.58a1.48,1.48,0,0,0-1-.51,21.92,21.92,0,0,0-2.69-.09,8.84,8.84,0,0,1-1.15,0,2.26,2.26,0,0,1-1.08-.35,2.94,2.94,0,0,0-1.8-.52h-.39a3.36,3.36,0,0,0-2.17.59,2,2,0,0,1-1.09.29c-.77,0-1.54,0-2.31,0l-.76,0a3,3,0,0,0-1.79.59,1.4,1.4,0,0,1-1.45.07c-.35-.15-.66-.38-1-.52a1.17,1.17,0,0,0-.74,0,1.11,1.11,0,0,0-.34.18,4,4,0,0,1-1.35.7,2.88,2.88,0,0,0-1,.55,1.73,1.73,0,0,1-1,.42,8.22,8.22,0,0,1-1.92,0,1.65,1.65,0,0,1-1-.48,1.81,1.81,0,0,0-.32-.22,1.07,1.07,0,0,0-1.35.27c-.23.32-.29.71-.5,1s-.46.61-.65.94a4.34,4.34,0,0,0-.24.72,2,2,0,0,1-.6,1c-.19.17-.4.31-.59.47a2.88,2.88,0,0,1-1-.53,1.86,1.86,0,0,1-.3-.24c-1.45-1.62-3.08-3.07-4.61-4.6a1.66,1.66,0,0,0-1.11-.19c-.33.18-.66.39-1,.56a2.51,2.51,0,0,1-1.11.26,2,2,0,0,1-1.42-.46c-.67-.59-1.35-1.17-2-1.79a2.24,2.24,0,0,0-1-.59,10.28,10.28,0,0,1-1.4-.62c-.46-.22-.72.08-1,.33a16.84,16.84,0,0,1-2,1.79,1.45,1.45,0,0,1-1.45.12,2.18,2.18,0,0,1-.31-.22,2.8,2.8,0,0,0-2.2-.37,1.6,1.6,0,0,0-.69.31,7.87,7.87,0,0,0-.86.77,3.44,3.44,0,0,1-1.29.79,2.49,2.49,0,0,0-1.26.83c-.18.18-.38.34-.56.52a1.58,1.58,0,0,1-2.08.23,2.59,2.59,0,0,0-1.41-.52c-.13,0-.26,0-.38,0a2.21,2.21,0,0,1-1.4-.57,2.31,2.31,0,0,0-1-.41c-.38,0-.77-.05-1.15-.06l-1.92,0a4.35,4.35,0,0,1-1.85-.41,1.14,1.14,0,0,0-1.09.09,1.67,1.67,0,0,1-2.07-.44c-.47-.44-.94-.88-1.39-1.32s-.9-.92-1.36-1.35a2.43,2.43,0,0,0-1-.56,2.59,2.59,0,0,1-1-.49,1.79,1.79,0,0,0-1-.41,9.38,9.38,0,0,0-1.91,0,1.41,1.41,0,0,0-.72.24,3.4,3.4,0,0,1-2.16.64c-1,0-2,0-3.07-.05a1.94,1.94,0,0,1-1.08-.34.81.81,0,0,0-.73-.05c-.24.08-.47.2-.71.27a3.29,3.29,0,0,1-2.25-.08,1.51,1.51,0,0,0-1.44-.18,1.28,1.28,0,0,1-1.08-.18,1.86,1.86,0,0,0-1.09-.31,4.77,4.77,0,0,1-1.85-.43,1.08,1.08,0,0,0-1.07.15,1.51,1.51,0,0,1-.72.21c-.9,0-1.79,0-2.69.06l-1.92,0a3,3,0,0,0-1.44.45,2.25,2.25,0,0,1-1.43.44l-.77,0a2.85,2.85,0,0,1-1.81-.5,2,2,0,0,0-.7-.29,1.82,1.82,0,0,0-1.11.21l-2.2,2.12a1.91,1.91,0,0,1-1.4.52,2,2,0,0,1-1.72-.68l-.84-.79c-.36-.35-.73-.7-1.09-1.07a1.68,1.68,0,0,0-1-.4l-.39,0c-4.73,0-9.46-.06-14.19,0a2.79,2.79,0,0,0-1.1.31c-.11.05-.21.15-.32.21a2.18,2.18,0,0,1-1.08.34c-.89,0-1.79.06-2.68.11a1.52,1.52,0,0,0-1,.45c-1.54,1.53-3.16,3-4.62,4.59a10.87,10.87,0,0,1-1.41,1.3,2.54,2.54,0,0,1-2.53.36,2.89,2.89,0,0,1-.67-.36,2,2,0,0,0-1.09-.34c-1.53,0-3.07-.06-4.6-.1a2,2,0,0,1-1.06-.39,1.66,1.66,0,0,1-.3-.24c-.29-.25-.59-.49-.86-.76a1.88,1.88,0,0,0-.63-.42,5,5,0,0,1-1.64-1,13.41,13.41,0,0,0-1.21-.93.84.84,0,0,0-.37-.09,2.32,2.32,0,0,0-.38-.06c-2.17,0-4.35-.06-6.52,0a3.78,3.78,0,0,0-.74.17c-.83.63-1.91.74-2.72,1.39a2.5,2.5,0,0,1-1.86.17,1,1,0,0,1-.76-.75,9.64,9.64,0,0,1-.12-1.52c0-.51-.2-.92-.43-.95a1.5,1.5,0,0,0-1,.45l-.9.71a1.15,1.15,0,0,1-.71.24l-3.84,0c-1.53,0-3.07,0-4.6.06V0H2000V156.43c-2.67,3-6.07,3.38-9.14,2.82,1.25,4.13,6.37,2.88,9.14,5.62v6.9a3.84,3.84,0,0,1-1.11.27c-2.43.07-4.86,0-7.29,0a3,3,0,0,1-1.8-.55,2,2,0,0,0-1.07-.38,15,15,0,0,0-2.68,0,2.79,2.79,0,0,0-1.07.37c-.87.5-1,.52-1.42.54-1.79.07-3.58.08-5.37,0a3.2,3.2,0,0,1-1.09-.33,2.57,2.57,0,0,0-1.75-.63,3.4,3.4,0,0,1-1.47-.4,1,1,0,0,0-.33-.19,1.06,1.06,0,0,0-.36.11,4.92,4.92,0,0,1-1.84.48,2.3,2.3,0,0,0-1.42.48,1.35,1.35,0,0,1-.33.19,2.55,2.55,0,0,1-2.55-.09l-.33-.2a1.92,1.92,0,0,0-1.08-.34c-1.15-.05-2.3-.05-3.45-.07a3.88,3.88,0,0,1-1.12-.25c-.47-.4-.94-.19-1.41,0a1.75,1.75,0,0,1-1.8-.2,1.84,1.84,0,0,0-1.06-.39c-1.15,0-2.3-.07-3.45-.09a2.46,2.46,0,0,1-1.44-.46,3.76,3.76,0,0,0-1.82-.49l-1.54,0h-6.14c-.51,0-1-.06-1.53-.08a1.19,1.19,0,0,1-.69-.29,2.88,2.88,0,0,0-1.75-.69,3.13,3.13,0,0,1-1.77-.64,2,2,0,0,0-.7-.29,4,4,0,0,1-1.37-.65,1.71,1.71,0,0,0-.72-.24,16.11,16.11,0,0,0-2.69,0,2.28,2.28,0,0,0-1.08.33,3.32,3.32,0,0,1-1.8.56c-1.41,0-2.82,0-4.22,0a4.18,4.18,0,0,1-2.55-.68,1.9,1.9,0,0,0-1.1-.22,2.64,2.64,0,0,0-1.46.39,3.65,3.65,0,0,0-.34.18,1.32,1.32,0,0,1-1.43,0,3.65,3.65,0,0,0-2.17-.63,26.17,26.17,0,0,1-3.07-.09,1.83,1.83,0,0,1-1-.46,2.21,2.21,0,0,0-1.4-.53c-.77,0-1.54-.06-2.3-.08a2,2,0,0,1-1.09-.32,8.53,8.53,0,0,0-1.74-.79c-.47-.18-.83-.59-1.36-.66-.38-.05-.76-.07-1.14-.15a1.64,1.64,0,0,1-1-.53c-.16-.19-.37-.35-.54-.54a3.42,3.42,0,0,0-1.61-1,3.15,3.15,0,0,1-1-.51,1.93,1.93,0,0,0-1.08-.32l-4.6-.1a1.42,1.42,0,0,1-.73-.22c-.22-.13-.45-.24-.66-.38a1.79,1.79,0,0,0-.71-.26,10.46,10.46,0,0,0-3.06,0,2.45,2.45,0,0,0-1.05.46,2.55,2.55,0,0,1-1.44.44h-5.75a2.76,2.76,0,0,1-1.79-.55,2,2,0,0,0-1.07-.39l-1.9-.18a1.56,1.56,0,0,1-.71-.28,4.34,4.34,0,0,0-1.35-.7,3.4,3.4,0,0,1-1-.52,2.11,2.11,0,0,0-1.08-.33l-2.68,0a5.11,5.11,0,0,1-1.52-.16,6.53,6.53,0,0,1-1-.54,1.58,1.58,0,0,0-.73-.21c-.77,0-1.54-.06-2.3-.06h-13.44a3.48,3.48,0,0,1-2.49-.8,3.19,3.19,0,0,0-1.1-.28l-3.07-.05a3.37,3.37,0,0,1-1.45-.42c-.87-.44-.93-.45-1.44-.46l-3.84,0a4.77,4.77,0,0,0-1.86.39c-.4.16-.4.13-1.06-.1a2.78,2.78,0,0,0-.73-.22c-.64-.05-1.28-.07-1.91-.07l-6.91,0a2.75,2.75,0,0,1-1.09-.32,1.81,1.81,0,0,1-.33-.2,2,2,0,0,0-1.09-.33c-1.15,0-2.3,0-3.45-.06h-1.53a2.85,2.85,0,0,1-1.81-.54,2.81,2.81,0,0,0-1.79-.54l-1.92,0c-.25,0-.51,0-.76,0a2.77,2.77,0,0,1-1.45-.44,2.91,2.91,0,0,0-2.92-.14,1.18,1.18,0,0,1-1.08.09,3.47,3.47,0,0,0-1.46-.43,3.24,3.24,0,0,1-1.8-.58,2,2,0,0,0-1.08-.32c-1.15,0-2.3,0-3.45,0a2.42,2.42,0,0,0-1.11.29,1.17,1.17,0,0,1-1.09.08,3.73,3.73,0,0,0-1.47-.39l-2.68,0a3,3,0,0,1-2.14-.67,2.55,2.55,0,0,0-1.09-.33c-.51,0-1,0-1.54,0l-2.68-.05a2.45,2.45,0,0,1-1.43-.47,3.59,3.59,0,0,0-1.83-.49l-3.07-.06a1.33,1.33,0,0,1-.37-.09.9.9,0,0,1-.36-.12,3.84,3.84,0,0,0-2.15-.71,1.57,1.57,0,0,1-1-.4c-.27-.26-.58-.5-.86-.76-.46-.44-.92-.88-1.37-1.33a1.68,1.68,0,0,0-1-.44,9.48,9.48,0,0,0-1.92,0,1.29,1.29,0,0,0-.71.24,3.27,3.27,0,0,1-2.16.63l-.77,0a2,2,0,0,1-1.09-.3,3.65,3.65,0,0,0-2.17-.61c-.64,0-1.28,0-1.92-.05a1.87,1.87,0,0,1-.74-.18,1.34,1.34,0,0,1-.34-.16,7,7,0,0,0-1.71-.85c-.22-.13-.43-.28-.64-.42a2,2,0,0,0-1.08-.35q-1.72-.06-3.45-.09a1.85,1.85,0,0,1-1.07-.38,3.09,3.09,0,0,0-1.79-.54,6.54,6.54,0,0,1-1.53-.11,1.18,1.18,0,0,1-.36-.12,5.74,5.74,0,0,1-1.69-1.53,2,2,0,0,1-.28-.7.54.54,0,0,1,.23-.67,1.37,1.37,0,0,0,.26-.28,1.39,1.39,0,0,1,1-.46,17.11,17.11,0,0,1,2.68,0,2,2,0,0,1,1.09.3,3.59,3.59,0,0,0,2.18.6c1.27,0,2.55,0,3.83-.06a.61.61,0,0,0,.56-.42.69.69,0,0,0-.15-.7,9.25,9.25,0,0,1-1-1.19,1.39,1.39,0,0,1-.15-.73.7.7,0,0,1,.39-.6,1,1,0,0,1,.35-.14c.64-.06,1.27-.1,1.91-.13a2.14,2.14,0,0,0,1.36-.61,3.58,3.58,0,0,0,.28-.26,2.28,2.28,0,0,0,.48-2.48.8.8,0,0,0-.18-.34,6.76,6.76,0,0,0-.89-.71.71.71,0,0,0-.72,0,3.12,3.12,0,0,1-1.83.47,6,6,0,0,1-1.52-.12.86.86,0,0,1-.35-.16c-.37-.34-.75-.69-1.1-1.06a13.26,13.26,0,0,0-1.44-1.26,1.93,1.93,0,0,0-1.07-.36c-.38,0-.76,0-1.15,0a2.69,2.69,0,0,1-1.77-.6,1.23,1.23,0,0,0-.69-.3c-.64-.06-1.27-.1-1.91-.17a1.77,1.77,0,0,1-1-.4c-.28-.26-.58-.51-.85-.77a2.55,2.55,0,0,0-1.72-.74c-1.15,0-2.3,0-3.45-.1a.91.91,0,0,1-.92-.53l-.3-.71a3.22,3.22,0,0,0-1.27-1.39,1.6,1.6,0,0,0-.71-.26,8.13,8.13,0,0,0-1.91,0,2,2,0,0,0-1,.45c-.39.32-.75.7-1.13,1a1.6,1.6,0,0,1-1,.44c-.64,0-1.27,0-1.91,0a2.84,2.84,0,0,1-2.14-.69,1.91,1.91,0,0,0-1.07-.36c-.89-.06-1.79-.07-2.68-.12a1.72,1.72,0,0,1-1-.42,1.62,1.62,0,0,0-.67-.36,3.67,3.67,0,0,1-.72-.27,1,1,0,0,1-.52-.53,4.68,4.68,0,0,0-1.22-1.92c-.44-.47-.88-.93-1.33-1.38a1.79,1.79,0,0,1-.48-1c-.09-.63-.13-1.27-.19-1.91a1.07,1.07,0,0,0-1-.92,3.86,3.86,0,0,0-.76,0,1.81,1.81,0,0,0-.72.24,6.81,6.81,0,0,0-1.45,1.24,1.3,1.3,0,0,0-.35,1.38c.08.24.19.47.26.71a3,3,0,0,1,0,1.52,1,1,0,0,1-.9.56,1.7,1.7,0,0,1-.71-.23,3.93,3.93,0,0,0-1-.52,3.91,3.91,0,0,1-1.37-.64,2,2,0,0,0-1.09-.31l-1.92,0-1.53,0a3,3,0,0,1-1.1-.32,5.87,5.87,0,0,0-1.67-.9,14.34,14.34,0,0,0-1.33-.76,2.67,2.67,0,0,1-1.32-.71c-.29-.26-.56-.53-.86-.76a2,2,0,0,0-1-.43c-.51,0-1-.06-1.53-.07a7.13,7.13,0,0,1-1.53-.12,2,2,0,0,1-.69-.32,5.18,5.18,0,0,1-.84-.78,2.49,2.49,0,0,0-2.06-.81l-1.92,0a2.57,2.57,0,0,1-1.43-.49,2.38,2.38,0,0,0-.67-.35,4,4,0,0,1-1.35-.7,2.2,2.2,0,0,0-1.44-.41,1.86,1.86,0,0,0-1.41.5,2.07,2.07,0,0,1-1,.45c-.63.07-1.28.08-1.91.13a2.13,2.13,0,0,0-1.06.41,2.14,2.14,0,0,1-.32.2,1.49,1.49,0,0,1-1.46,0,2.62,2.62,0,0,0-.64-.42,7.5,7.5,0,0,1-2.06-1,1.51,1.51,0,0,0-.72-.24,13.34,13.34,0,0,0-2.68,0,1.76,1.76,0,0,0-1,.43c-.38.33-.74.7-1.14,1a1.74,1.74,0,0,1-1,.44c-1.28,0-2.56.06-3.83.12a1.47,1.47,0,0,0-1,.43c-.44.46-.91.89-1.38,1.33-.28.26-.56.52-.85.77a1.9,1.9,0,0,1-1,.41,3.84,3.84,0,0,0-2.14.69,2.45,2.45,0,0,1-1.86.12.9.9,0,0,1-.6-.44,6.18,6.18,0,0,0-.72-1.34,2.8,2.8,0,0,1-.51-1,2.54,2.54,0,0,0-.1-.37,1.09,1.09,0,0,0-.17-.34,8.66,8.66,0,0,0-2.23-2.08,1.11,1.11,0,0,0-1.08.07c-.22.14-.4.32-.62.44a1.46,1.46,0,0,1-1.46,0,3.45,3.45,0,0,1-.63-.45,1.16,1.16,0,0,0-.7-.26c-1-.09-2,0-3.07-.06a3.26,3.26,0,0,0-2.14.68,1.26,1.26,0,0,1-1.73-.12,1.81,1.81,0,0,0-.32-.22,1.32,1.32,0,0,0-1.43,0c-.2.16-.39.32-.58.5s-.57.52-.85.77a1.48,1.48,0,0,1-1.09.24,2.85,2.85,0,0,1-.7-.28,2.63,2.63,0,0,0-1.8-.49,1.58,1.58,0,0,0-.74.17c-.34.18-.66.39-1,.54s-.72.24-1.07.4a4.37,4.37,0,0,0-.65.4,1.53,1.53,0,0,1-.71.26,2.79,2.79,0,0,1-2.19-.45,2.4,2.4,0,0,0-1.83-.33,1.12,1.12,0,0,0-1,1c0,.64-.1,1.27-.17,1.91a.89.89,0,0,1-.33.66,1.73,1.73,0,0,1-.7.25,4.82,4.82,0,0,1-.76,0,1.75,1.75,0,0,1-1.06-.4,8.82,8.82,0,0,1-.84-.78l-2.43-2.44a7.86,7.86,0,0,0-.85-.78,1.77,1.77,0,0,0-.68-.32,2.87,2.87,0,0,0-2.21.32c-.75.47-.77.45-1,.41a2.08,2.08,0,0,1-1-.45,20.76,20.76,0,0,1-1.62-1.63c-.35-.38-.72-.72-1.1-1.07a2.47,2.47,0,0,0-2.12-.64c-.49.06-.76.19-.9.58a4.55,4.55,0,0,1-1.63,2.07,1,1,0,0,1-1.08.06c-.21-.13-.41-.3-.63-.43a2.76,2.76,0,0,0-1.84-.35,1.37,1.37,0,0,0-.71.27c-.39.33-.77.67-1.15,1a3.07,3.07,0,0,1-1.33.71,3.24,3.24,0,0,0-1,.54,1.62,1.62,0,0,1-.71.27,19.75,19.75,0,0,1-4.21,0,1.65,1.65,0,0,1-.71-.26,3.09,3.09,0,0,0-1.79-.59c-.25,0-.51,0-.76,0a3,3,0,0,1-1.8-.56,2,2,0,0,0-1.08-.33c-1.15-.06-2.3-.06-3.45-.1a1.88,1.88,0,0,1-1.37-.58,3.47,3.47,0,0,1-1-1.61,1.54,1.54,0,0,0-.85-.71,3.06,3.06,0,0,1-1-.49,2.31,2.31,0,0,0-1.39-.56,4.05,4.05,0,0,1-1.82-.54c-.43-.25-.56-.2-1,.16s-.75.7-1.16,1a1.36,1.36,0,0,1-.7.29,25.76,25.76,0,0,1-3.83,0,1.78,1.78,0,0,1-1.07-.37,1.91,1.91,0,0,0-2.14-.18,1,1,0,0,1-1,0,2.9,2.9,0,0,0-1.47-.4l-1.91,0a2.73,2.73,0,0,1-1.45-.43l-.65-.4a2.73,2.73,0,0,0-1.87,0c-.34.17-.67.37-1,.57a1.66,1.66,0,0,1-.72.24c-1.15.12-2.3,0-3.45.1a3.1,3.1,0,0,0-1.43.49,2.42,2.42,0,0,1-1.43.47h-.38a3.61,3.61,0,0,1-2.54-.67,1.4,1.4,0,0,0-1.44.1,2.25,2.25,0,0,0-.3.24c-.29.24-.59.48-.88.74a1.82,1.82,0,0,1-.65.4,5.3,5.3,0,0,0-1.7.84,1.43,1.43,0,0,1-1.44-.09,5.73,5.73,0,0,1-.6-.48c-.56-.52-1.11-1.06-1.66-1.59S1531.94,105.35,1530.92,105.84Z" transform="translate(0)"/><path class="cls-1" d="M2000,164.87a5.34,5.34,0,0,1-1.12.18c-1.66,0-3.31,0-5,0a16.25,16.25,0,0,1-3-.12,2.63,2.63,0,0,1-.66-.35,6.46,6.46,0,0,1-.11-.75.84.84,0,0,1,.13-.35c.11-.23.25-.45.35-.68a2.89,2.89,0,0,0,.14-1.86,1.16,1.16,0,0,0-.82-.68,9.82,9.82,0,0,0-1.53-.09c-2.3,0-1.59.05-3.44-1.24a.55.55,0,0,1-.16-.31c-.1-.34,0-.46.38-.51.51-.06,1-.06,1.52-.07,1.66,0,3.31,0,5-.05a1.87,1.87,0,0,0,1.08-.32c.11-.07.23-.11.34-.18a2.24,2.24,0,0,1,1.07-.33c.38,0,.76-.05,1.15-.05a2.89,2.89,0,0,0,1.77-.58,1.64,1.64,0,0,1,.7-.28,4.3,4.3,0,0,1,2.25.16Z" transform="translate(0)"/><path class="cls-1" d="M1281.86,120.26a2.55,2.55,0,0,0-1.81.47,2.11,2.11,0,0,1-.31.21,5.59,5.59,0,0,1-.72.26,1.71,1.71,0,0,0-.68.32c-.39.33-.78.66-1.14,1a3.21,3.21,0,0,1-1.31.76.77.77,0,0,0-.35.13,3.71,3.71,0,0,1-2.49.82,2.46,2.46,0,0,0-1,.46,2.2,2.2,0,0,1-1.07.36c-.77,0-1.53.05-2.3.07a2.54,2.54,0,0,0-1.44.43,3.64,3.64,0,0,1-1,.57,4.79,4.79,0,0,0-1.33.73,1.92,1.92,0,0,1-.7.31,3.72,3.72,0,0,0-1.36.65,1.65,1.65,0,0,1-.72.23,20,20,0,0,1-2.68,0,2,2,0,0,1-1.6-.89.74.74,0,0,1-.12-.72,2.71,2.71,0,0,1,1.24-1.39c.63-.34.63-.36.4-1.15a4.67,4.67,0,0,1-.17-.74,2.59,2.59,0,0,1,.51-2.16,1.16,1.16,0,0,0,.29-.69,8.72,8.72,0,0,0,0-1.91,17.1,17.1,0,0,1,11.16-4.57c2.15-1.57,4.78-1.4,7.21-2l-.13.07c3-1.6,5.38.1,7.4,1.85s1.25,4.7-1.27,5.72C1283.57,119.88,1282.63,119.76,1281.86,120.26Z" transform="translate(0)"/><path class="cls-1" d="M461.71,135.06l5.36,0c.64,0,1.28,0,1.91,0a2.42,2.42,0,0,1,1.42.5,2.89,2.89,0,0,0,1.79.56l1.91.07a1.16,1.16,0,0,1,1.12.85,2.22,2.22,0,0,1,.09.37,6.23,6.23,0,0,0,.47,1.84,1,1,0,0,1-.24,1,2,2,0,0,1-1.67.75h-11.1c-.49,0-.53,0-1.41-.48a4,4,0,0,0-.69-.34,5.74,5.74,0,0,1-1.7-.84,1.4,1.4,0,0,0-.72-.23l-1.15,0a3,3,0,0,0-1.81.49.59.59,0,0,1-.69.06,3.53,3.53,0,0,0-1.81-.56l-1.14,0a1.71,1.71,0,0,1-1.06-.38,4,4,0,0,0-2.13-.76c-.87-1.74.27-1.86,1.52-1.87,2.63,0,5.26,0,7.89,0C459.27,136.14,460.63,136.16,461.71,135.06Z" transform="translate(0)"/><path class="cls-1" d="M1255.27,116.57a5.22,5.22,0,0,0,.58,1,1.35,1.35,0,0,1-.1,1.43l-.24.3a8.93,8.93,0,0,1-1.33,1.35,2.66,2.66,0,0,1-1,.56,1.29,1.29,0,0,0-1,1,2.86,2.86,0,0,1-1.08,1.52,1.92,1.92,0,0,1-1,.47c-1.14.11-2.28,0-3.42.08a2.43,2.43,0,0,0-1.45.39c-.22.11-.44.24-.67.34a1.25,1.25,0,0,1-.37.09,13.44,13.44,0,0,1-3,0,1.92,1.92,0,0,1-1-.44,2.31,2.31,0,0,1-.95-1.58c0-.25,0-.5-.07-.75a2.38,2.38,0,0,0-.41-1,2.56,2.56,0,0,1-.34-2.17,1.2,1.2,0,0,1,1.12-.84l2.66-.12a1.5,1.5,0,0,0,.71-.24,4,4,0,0,1,.67-.36,2.1,2.1,0,0,1,.72-.2c.89,0,1.78-.05,2.67-.07s1.52,0,2.28-.06a1.23,1.23,0,0,0,.69-.28c.39-.33.74-.69,1.14-1a1.21,1.21,0,0,1,1.41-.14C1253.15,116.72,1254.51,115.61,1255.27,116.57Z" transform="translate(0)"/><path class="cls-1" d="M406,126.65a1.84,1.84,0,0,1,.35.15c.42.29.84.58,1.24.89a2,2,0,0,0,1.06.37,2.69,2.69,0,0,0,1.81-.42,1.32,1.32,0,0,1,.33-.18,1.48,1.48,0,0,1,1.44.08,3,3,0,0,0,1.79.55c1.14,0,2.29,0,3.43.09a1.61,1.61,0,0,1,1,.45,2.83,2.83,0,0,0,1,.51,3.78,3.78,0,0,1,1.73,1.43,1.09,1.09,0,0,1,.13.34.88.88,0,0,1-.38,1,18,18,0,0,0-1.72.81c-.33.2-.35.18-1-.2a3.08,3.08,0,0,0-.69-.32,3.82,3.82,0,0,1-1.36-.66,1.2,1.2,0,0,0-.69-.28c-.89,0-1.78-.07-2.67-.09a2.75,2.75,0,0,1-1.42-.46,2.74,2.74,0,0,0-1.45-.41H408a3.29,3.29,0,0,0-1.8.53,2.73,2.73,0,0,1-2.2.21,1.17,1.17,0,0,1-.34-.16,2.91,2.91,0,0,1-1.07-1,1.19,1.19,0,0,1-.06-1.1,2.63,2.63,0,0,1,1.32-1.31c.57-.27,1.21-.39,1.76-.71C405.72,126.63,405.86,126.66,406,126.65Z" transform="translate(0)"/><path class="cls-1" d="M1281.86,120.26c.47-.87.47-.89,1.34-1.21a4.07,4.07,0,0,0,1.51-1.1,1.19,1.19,0,0,0,.31-.68A6.14,6.14,0,0,0,1285,115a.92.92,0,0,0-.46-.56,6.84,6.84,0,0,1-1.37-.64,2.35,2.35,0,0,0-1.39-.51,2.82,2.82,0,0,1-1.76-.62,3.07,3.07,0,0,0-1.37-.59,2.15,2.15,0,0,1-.36-.11,1.36,1.36,0,0,1,.09-.36,6.87,6.87,0,0,0,.83-1.7,1.09,1.09,0,0,1,.84-.7,2.87,2.87,0,0,1,1.51.07,1.74,1.74,0,0,1,.65.39,2.7,2.7,0,0,0,1,.52,2.35,2.35,0,0,1,1,.55l1.69,1.54c.44.4.64.43,1.4.2h-.08l.09,1.52a1,1,0,0,0,.57.91,6.26,6.26,0,0,1,1.33.7c.39.31.86.52,1.28.8a.52.52,0,0,1,.18.33.51.51,0,0,1-.06.34,6,6,0,0,1-1,1.13c-.53.54-1,1.11-1.6,1.63a1.26,1.26,0,0,1-.67.31,11,11,0,0,1-1.52.12,2.73,2.73,0,0,0-1.76.59,4.21,4.21,0,0,1-1,.56l-.13-1h0Z" transform="translate(0)"/><path class="cls-1" d="M1221.12,126.25c-.43,0-1.06,0-1.69,0a2,2,0,0,1-1.34-.62c-.18-.17-.37-.34-.54-.53a3.12,3.12,0,0,1-.56-1,1,1,0,0,0-.77-.75,2.69,2.69,0,0,1-1.44-1.15.75.75,0,0,1,0-1,6.76,6.76,0,0,1,.52-.55,1.24,1.24,0,0,1,.67-.32,2.92,2.92,0,0,1,2.18.35,2.57,2.57,0,0,0,1.41.48l1.51.08a2.21,2.21,0,0,1,1.06.37,2.21,2.21,0,0,0,.64.38,3.92,3.92,0,0,1,2.11,1.52,1.55,1.55,0,0,1,.28.69,4.67,4.67,0,0,1,0,.75,1.22,1.22,0,0,1-.49,1,1.35,1.35,0,0,1-.69.28A25.46,25.46,0,0,1,1221.12,126.25Z" transform="translate(0)"/><path class="cls-1" d="M395.42,121.16h4.95a7.32,7.32,0,0,1,1.13.11.89.89,0,0,1,.6.38,1.44,1.44,0,0,1,0,1.1,4,4,0,0,1-.68.9,1.93,1.93,0,0,1-1,.49,4.77,4.77,0,0,1-.76.07c-.38,0-.76,0-1.14,0H391a9.63,9.63,0,0,1-1.52-.11,1,1,0,0,1-.84-.63,2.52,2.52,0,0,1,0-1.49,1,1,0,0,1,.79-.71,4.26,4.26,0,0,1,1.13-.12Z" transform="translate(0)"/><path class="cls-1" d="M1271.41,114.28a1.71,1.71,0,0,1-1.2.84c-.13,0-.25,0-.38,0a2.8,2.8,0,0,0-1.75.61,2.92,2.92,0,0,1-1,.49,3,3,0,0,0-1,.53,1.7,1.7,0,0,1-1,.41c-.88.05-1.77.05-2.65.1a1.86,1.86,0,0,0-1.06.37,5.19,5.19,0,0,1-1.3.77c0-.11,0-.22,0-.34a2.9,2.9,0,0,0-.27-1.64c.53-.34,1.07-.66,1.58-1s1-.29,1.38-.58a6.24,6.24,0,0,1,1.68-.82,3,3,0,0,0,1.54-1.57,3.62,3.62,0,0,0,.13-.35,1.28,1.28,0,0,1,1.43-.95h.37a1.8,1.8,0,0,1,1.34.58,3.43,3.43,0,0,1,.66.9,1.93,1.93,0,0,0,1.19.8l.11-.17.19.08a.56.56,0,0,1,.23.59C1271.53,114.17,1271.47,114.28,1271.41,114.28Z" transform="translate(0)"/><path class="cls-1" d="M1230.41,121.13c.31,0,.69.07,1.06.15a.78.78,0,0,1,.56.45c.2.46.34,1,.55,1.41a1.06,1.06,0,0,1,0,1.06,11,11,0,0,0-.57,1.39,1.24,1.24,0,0,1-1.31.47,2.79,2.79,0,0,1-.66-.36,2.38,2.38,0,0,0-1-.53,3.33,3.33,0,0,1-1.76-1.34,1.27,1.27,0,0,1,.07-1.42,6,6,0,0,1,.8-.79,1.78,1.78,0,0,1,1-.44C1229.59,121.14,1230,121.14,1230.41,121.13Z" transform="translate(0)"/><path class="cls-1" d="M1249.67,126.21a11.3,11.3,0,0,1,2.49.14,1.35,1.35,0,0,1,.78.74,3.07,3.07,0,0,1,0,1.13,1.31,1.31,0,0,1-.76.77,4.79,4.79,0,0,1-1.13.14c-1.79,0-3.57,0-5.36,0a2.81,2.81,0,0,1-.75-.13c-.11,0-.19-.14-.3-.21a.65.65,0,0,1-.3-.65,1.13,1.13,0,0,1,.22-.71,10.19,10.19,0,0,1,.81-.8,1.19,1.19,0,0,1,.68-.31,6.31,6.31,0,0,1,.76-.08Z" transform="translate(0)"/><path class="cls-1" d="M447.48,138c-.37.08-.74.18-1.11.25a2.14,2.14,0,0,0-1,.52,2.09,2.09,0,0,1-1.41.47,2.07,2.07,0,0,1-2-.93c-.13-.22-.23-.45-.35-.67A6.82,6.82,0,0,1,442,137a7.92,7.92,0,0,1,1.63-1.59,1.48,1.48,0,0,1,.7-.28,9.27,9.27,0,0,1,1.9,0,2,2,0,0,1,1.33.64C448.09,136.5,448.28,137.26,447.48,138Z" transform="translate(0)"/><path class="cls-1" d="M391.43,128.09h.37a2.17,2.17,0,0,1,2.14,1.24.77.77,0,0,1,0,.71,1.29,1.29,0,0,1-.19.32,12.5,12.5,0,0,1-1.66,1.51,1.44,1.44,0,0,1-1.42,0,9.16,9.16,0,0,1-1.64-1.53,1,1,0,0,1,.08-1.35l.24-.29a1.49,1.49,0,0,1,1-.51,2.47,2.47,0,0,1,.38,0c.25,0,.5,0,.75,0Z" transform="translate(0)"/><path class="cls-1" d="M1207.56,125.83c.61-.14,1.25-.24,1.85-.44a1.51,1.51,0,0,0,1-1.06,5.42,5.42,0,0,0,.17-1.13c0-.63.08-1.26.16-1.89a2.84,2.84,0,0,1,1.11-1.92,2.8,2.8,0,0,1,1.38-.59,6,6,0,0,1,2.27.14,5.08,5.08,0,0,1-.71.26c-.38.07-.76.09-1.14.14a2.3,2.3,0,0,0-1.89,1.12,2.17,2.17,0,0,0-.32.69,3.14,3.14,0,0,0-.09.75,14.8,14.8,0,0,0,.08,3,1.08,1.08,0,0,0,.64.88c.35.14.71.26,1.06.42a.89.89,0,0,1,.43.59,1,1,0,0,1-.6.37,1.9,1.9,0,0,1-1.48-.18,3.6,3.6,0,0,0-2.14-.69,6.61,6.61,0,0,1-.76,0A1.81,1.81,0,0,1,1207.56,125.83Z" transform="translate(0)"/><path class="cls-1" d="M1189.76,128.16h-1a2.48,2.48,0,0,1-1-.23v-.49a9.36,9.36,0,0,0,1.7-.93,1.23,1.23,0,0,1,.63-.62l0-.07c1.86-1.38,1.48,1.2,2.45,1.39,1.6,0,3.2,0,4.8,0a10.27,10.27,0,0,1,1.1.12l-.77,1.52a2.05,2.05,0,0,1-.67-.24,2.11,2.11,0,0,0-1-.37,7.82,7.82,0,0,0-1.81,0,2.42,2.42,0,0,0-1,.37l-.3.2a1.93,1.93,0,0,1-2.22.12l.07,0A1.39,1.39,0,0,0,1189.76,128.16Z" transform="translate(0)"/><path class="cls-1" d="M447.48,138a18.85,18.85,0,0,1,.12-2.25c1.53-.1,3.06-.1,4.59-.1,1.79,0,3.57,0,5.36,0a15.79,15.79,0,0,0,4.16-.55,6.9,6.9,0,0,1-.42.63,1.36,1.36,0,0,1-1,.51c-.76.06-1.52.07-2.28.08-2.55,0-5.09,0-7.63,0a7.12,7.12,0,0,0-1.13.14,1,1,0,0,0-.72.78c0,.25-.05.5-.08.75Z" transform="translate(0)"/><path class="cls-1" d="M381.62,123.44l.6-.41a1.43,1.43,0,0,0,.56-.92,15.89,15.89,0,0,0,.27-2.93,5.66,5.66,0,0,1,.08-1.09A1.69,1.69,0,0,1,384,117a4.05,4.05,0,0,1,1.4-.42,1.09,1.09,0,0,1-.43.59c-.21.12-.45.21-.67.33a1,1,0,0,0-.44,1.25,3.05,3.05,0,0,1,.3,1.07c0,.39-.27.68-.38,1a2.06,2.06,0,0,0-.12.35,2.51,2.51,0,0,0,.15,1.46c.17.33.39.64.56,1s.19.46.28.69l.08-.06a7.11,7.11,0,0,1-2.11,0A1,1,0,0,1,381.62,123.44Z" transform="translate(0)"/><path class="cls-1" d="M424.35,116.62a2.49,2.49,0,0,1,.28-1.05.66.66,0,0,1,.6-.4,1.23,1.23,0,0,1,.73.09,3.65,3.65,0,0,1,1.12,1,2.11,2.11,0,0,1,.21.31,1.27,1.27,0,0,1,.08,1.09,2,2,0,0,1-1.06,1,.93.93,0,0,1-1-.09A2.2,2.2,0,0,1,424.35,116.62Z" transform="translate(0)"/><path class="cls-1" d="M1730,136.2a2.9,2.9,0,0,1,1.47.29.77.77,0,0,1,.39.57.65.65,0,0,1,0,.37,2.68,2.68,0,0,1-.49.52.83.83,0,0,1-.36.09,5.47,5.47,0,0,1-1.85,0,1.11,1.11,0,0,1-.36-.08c-.11,0-.18-.16-.28-.23a.62.62,0,0,1-.23-.66,1,1,0,0,1,.66-.76,2.21,2.21,0,0,1,.37-.08Z" transform="translate(0)"/><path class="cls-1" d="M344,127.25a3.2,3.2,0,0,1-1.81-.13c-.31-.15-.36-.31-.18-.58a.85.85,0,0,1,.56-.42l2.95-.34a1.15,1.15,0,0,1-.38.6C344.75,126.68,344.36,127,344,127.25Z" transform="translate(0)"/><path class="cls-1" d="M1256,123.19a1,1,0,0,1-.53.87.94.94,0,0,1-1-.23.86.86,0,0,1-.16-1,1,1,0,0,1,.83-.6.7.7,0,0,1,.63.3A1.36,1.36,0,0,1,1256,123.19Z" transform="translate(0)"/><path class="cls-1" d="M418.48,116.06a.82.82,0,0,1,.33-.65,1,1,0,0,1,1.05-.07,1.17,1.17,0,0,1,.44,1,1.14,1.14,0,0,1-.1.36,1,1,0,0,1-.95.46.75.75,0,0,1-.74-.7C418.49,116.31,418.49,116.18,418.48,116.06Z" transform="translate(0)"/><path class="cls-1" d="M395.47,114.12a.87.87,0,0,1,1-.8,1.24,1.24,0,0,1,.86.6A1,1,0,0,1,396,115,.85.85,0,0,1,395.47,114.12Z" transform="translate(0)"/><path class="cls-1" d="M866,175.6a4.74,4.74,0,0,1,1.68.8c.11.28.06.49-.16.61a.83.83,0,0,1-.34.13l-1.88.15C865.56,176.73,865.79,176.16,866,175.6Z" transform="translate(0)"/><path class="cls-1" d="M403.12,120.3a.55.55,0,0,1-.52-.42,1,1,0,0,1,0-.34.79.79,0,0,1,.8-.58,1,1,0,0,1,.66.23.64.64,0,0,1,0,.93,1.07,1.07,0,0,1-.32.16A.43.43,0,0,0,403.12,120.3Z" transform="translate(0)"/><path class="cls-1" d="M408.7,139.6a.63.63,0,0,1,.5-.47.71.71,0,0,1,.86.49.46.46,0,0,1-.32.58,1,1,0,0,1-.74,0A.46.46,0,0,1,408.7,139.6Z" transform="translate(0)"/><path class="cls-1" d="M387,120.28a.56.56,0,0,1-.46-.48.71.71,0,0,1,.54-.79,1.08,1.08,0,0,1,.71,0,.68.68,0,0,1,.2,1.14,1.26,1.26,0,0,1-.34.13A.42.42,0,0,0,387,120.28Z" transform="translate(0)"/><path class="cls-1" d="M1530.92,105.84a.56.56,0,0,1,.5-.51.93.93,0,0,1,.71.18,2.45,2.45,0,0,1,.77.83,2.26,2.26,0,0,1,.11.37,1.77,1.77,0,0,1-.72-.21Z" transform="translate(0)"/><path class="cls-1" d="M1255.27,116.57c-.76-.14-1.51-.26-2.26-.41a1,1,0,0,1-.61-.42,26.38,26.38,0,0,1,2.67-.14c.45-.19.58-.06.38.39A1.7,1.7,0,0,1,1255.27,116.57Z" transform="translate(0)"/><path class="cls-1" d="M352,141.67a.77.77,0,0,1,.07-.27.49.49,0,0,1,.61-.18c.28.12.32.33.17.51a.52.52,0,0,1-.61.19C352.1,141.88,352,141.75,352,141.67Z" transform="translate(0)"/><path class="cls-1" d="M1254.5,113.49a.81.81,0,0,1,.7.77,6.51,6.51,0,0,1,.07.76A2.43,2.43,0,0,1,1254.5,113.49Z" transform="translate(0)"/><path class="cls-1" d="M371.91,124.73a.82.82,0,0,1,.08-.25.56.56,0,0,1,.63-.18c.3.13.35.32.19.5a.58.58,0,0,1-.64.16C372.07,124.93,372,124.81,371.91,124.73Z" transform="translate(0)"/><path class="cls-1" d="M384.63,124.27a.42.42,0,0,1,.55.31l-.29.2c-.28-.12-.34-.31-.18-.58Z" transform="translate(0)"/><path class="cls-1" d="M1255.27,115a.87.87,0,0,1,.73.78,5.1,5.1,0,0,1-.55.19l-.38-.39A4,4,0,0,1,1255.27,115Z" transform="translate(0)"/><path class="cls-1" d="M477.69,137.62l.24-.21c.07.08.2.17.2.25s-.15.14-.23.21Z" transform="translate(0)"/><path class="cls-1" d="M387,120.28l.33-.1.32.13A1,1,0,0,1,387,120.28Z" transform="translate(0)"/><path class="cls-1" d="M344.77,127.85a.9.9,0,0,1-.77-.59A.77.77,0,0,1,344.77,127.85Z" transform="translate(0)"/><path class="cls-1" d="M403.12,120.3l.32-.11.33.09A1,1,0,0,1,403.12,120.3Z" transform="translate(0)"/><path class="cls-1" d="M1147.74,127.83a3.14,3.14,0,0,1-1.08.28c-1.14,0-2.27.06-3.41.09a1,1,0,0,0-.81.66,1.65,1.65,0,0,0,.11,1.09,4.81,4.81,0,0,1,.67,1.34l.07-.09a18.39,18.39,0,0,0-3.06,0,1.73,1.73,0,0,0-1,.46,15.55,15.55,0,0,1-1.45,1.24,1.36,1.36,0,0,1-.71.26c-.63.05-1.27.05-1.91.06a4.57,4.57,0,0,1-2.2-.51.49.49,0,0,0-.55.35,8,8,0,0,0-.23,1.89,1.42,1.42,0,0,1-.88,1.16,6,6,0,0,0-1.33.73,1.33,1.33,0,0,1-.7.26,17.54,17.54,0,0,1-1.91.08,4,4,0,0,0-2.53.67,2.45,2.45,0,0,1-.71.28,2.74,2.74,0,0,0-1.24.85c-.17.18-.37.34-.55.52a2.34,2.34,0,0,1-1.35.66c-.25,0-.51.06-.76.09a.92.92,0,0,0-.87.62,4,4,0,0,1-1.32,1.83,1.82,1.82,0,0,1-1,.45c-.5,0-1,.06-1.52.08a1.83,1.83,0,0,0-1.09.3,3.29,3.29,0,0,1-2.16.61l-2.29,0a3,3,0,0,0-1.82.49,3.59,3.59,0,0,1-1,.48,4.18,4.18,0,0,0-1,.57,2.6,2.6,0,0,1-1.44.44,7,7,0,0,1-1.52-.08,1.22,1.22,0,0,1-.75-1.18c.09-.51.49-.87.65-1.35a1,1,0,0,0,0-.38,1.13,1.13,0,0,0-1-1c-1.27-.15-2.54,0-3.82-.11a11,11,0,0,1-1.13-.17c-.5-.29-.51-.6,0-.93a1.44,1.44,0,0,1,1.24-.75c.51,0,1-.06,1.53-.07a1.94,1.94,0,0,0,1.08-.33,3.62,3.62,0,0,1,1-.58,5,5,0,0,0,1.67-.89,1.94,1.94,0,0,1,.7-.28,2.2,2.2,0,0,0,.69-.33c.41-.3.78-.65,1.18-1a1.8,1.8,0,0,1,1.37-.57,4.58,4.58,0,0,0,1.11-.24,1.22,1.22,0,0,0,.34-.18c.75-.69,1.48-1.4,2.23-2.09a2,2,0,0,1,1-.45c.37-.06.76-.09,1.13-.15a.86.86,0,0,0,.36-.13c.79-.64,1.46-1.42,2.27-2a1.09,1.09,0,0,1,1.38-.06,1.65,1.65,0,0,0,.73.19c.51.05,1,.05,1.53.05a4.9,4.9,0,0,0,.76-.08.89.89,0,0,0,.35-.14,3.18,3.18,0,0,0,1.44-1.71,3.06,3.06,0,0,1,1.08-1.53,1.82,1.82,0,0,1,1-.4l1.53-.07a2.73,2.73,0,0,0,1.4-.53,2.58,2.58,0,0,1,2.87,0,2.26,2.26,0,0,0,.31.23,1.63,1.63,0,0,0,1.46,0l.68-.35c4.66-1,9.37-.22,14-.39C1147.6,126.15,1148.42,126.55,1147.74,127.83Z" transform="translate(0)"/><path class="cls-1" d="M818.6,160.13c.51,0,1,0,1.53.07a2.22,2.22,0,0,1,1.08.37,5.1,5.1,0,0,0,1,.55c.55.23.63.4.48.83a4.19,4.19,0,0,0-.39,1.85,1.93,1.93,0,0,0,.33,1.07c.39.5.79,1,1.18,1.51.17.74,0,1.12-.85.83-.12,0-.25,0-.38,0-1,.07-.79,0-1.18.73a3.49,3.49,0,0,1-1.36,1.8,1.72,1.72,0,0,1-1,.39l-5,0a3,3,0,0,0-1.81.51,2,2,0,0,1-1.07.37c-.9.05-1.79.05-2.69.1a1.72,1.72,0,0,0-1,.43c-.48.42-.95.85-1.44,1.26a1.33,1.33,0,0,1-.71.26,6.48,6.48,0,0,1-.76.06H791.05c-.26,0-.51,0-.77-.06a1.06,1.06,0,0,1-.88-1.06,1.83,1.83,0,0,1,.45-1,7,7,0,0,0,.51-.58,1,1,0,0,0,.19-1.36c-.2-.33-.4-.66-.59-1a1.24,1.24,0,0,1,.06-1.67,5.91,5.91,0,0,1,1.87-.26,2.35,2.35,0,0,0,1.38-.56,2.37,2.37,0,0,1,1.41-.5l1.52-.08a1.42,1.42,0,0,0,.71-.23,5.73,5.73,0,0,1,1.73-.77,2.65,2.65,0,0,0,.65-.37,2.1,2.1,0,0,1,1.05-.39,24.1,24.1,0,0,1,3.8,0,1.37,1.37,0,0,1,1.15.84l.18.33a.75.75,0,0,0,.58.41,1,1,0,0,0,1-.37,2.47,2.47,0,0,0,.4-.64,1.17,1.17,0,0,1,.94-.57,6,6,0,0,1,1.89,0,2.53,2.53,0,0,1,.72.23,10.67,10.67,0,0,0,1,.53,9,9,0,0,1,1.41.57.82.82,0,0,0,.73,0,4.16,4.16,0,0,1,1.82-.46,2,2,0,0,0,1.37-.57,5.44,5.44,0,0,0,.55-.52,1.41,1.41,0,0,0,.24-1.42,1.88,1.88,0,0,0-.39-.65C817.65,160.26,817.81,159.84,818.6,160.13Z" transform="translate(0)"/><path class="cls-1" d="M411.52,97.41a1.46,1.46,0,0,1-1.24.74c-.12,0-.25,0-.38,0h-3a2.49,2.49,0,0,1-1.1-.25l-.35-.67c-.06-.12-.09-.24-.14-.35a1,1,0,0,0-1.32-.41,3.82,3.82,0,0,0-.64.4A24.46,24.46,0,0,0,401.13,99a2.48,2.48,0,0,0-.66,1.73,1.86,1.86,0,0,0,.53,1.39l.54.54a1.68,1.68,0,0,0,1,.48,13.46,13.46,0,0,0,2.29,0,2.29,2.29,0,0,0,1.42-.47,2.4,2.4,0,0,1,1.39-.56c1.91-.07,3.82-.1,5.73,0a1.15,1.15,0,0,1,.91,1,.8.8,0,0,1-.6.85c-.37.08-.75.14-1.13.2s-.48.2-.42.42a.52.52,0,0,0,.19.3,1,1,0,0,1,.51.54,1.33,1.33,0,0,1-.36,1,7.28,7.28,0,0,1-1.09,1.06.59.59,0,0,1-.71.08,2.36,2.36,0,0,1-1.29-1.32,4.3,4.3,0,0,0-.29-.7.86.86,0,0,0-.59-.44,2.35,2.35,0,0,0-2.41.75c-.17.19-.38.35-.55.53a1.93,1.93,0,0,1-1.32.67l-.38,0a2.79,2.79,0,0,0-1.75.64,3.83,3.83,0,0,1-.73.22,17,17,0,0,1-2.67,0,2.63,2.63,0,0,1-1.09-.31,3.68,3.68,0,0,0-2.17-.58h-7.65l-.76,0c-.29,0-.55-.09-.61-.27s.06-.48.36-.56a7.32,7.32,0,0,1,1.12-.2,2.78,2.78,0,0,0,1.73-.71,1.5,1.5,0,0,1,.71-.27l1.9-.11c.34,0,.49-.1,1-.52.29-1,1.16-1.31,2-1.71a6,6,0,0,0,.95-.94,6.56,6.56,0,0,0,.1-3,1.77,1.77,0,0,0-.32-.68,2,2,0,0,1-.35-.65,1.1,1.1,0,0,1,.6-1.25,6.57,6.57,0,0,0,2.17-1.51,1.71,1.71,0,0,1,.62-.42,7.1,7.1,0,0,0,1.72-.8,2,2,0,0,1,1.08-.31c1.27,0,2.54,0,3.81,0l5,0a2.89,2.89,0,0,0,2.1-.72l.71-.26a1.2,1.2,0,0,1,.38,0c3.17-.1,6.35,0,9.52,0,.63,0,1.27,0,1.9.07a.75.75,0,0,1,.62.39.64.64,0,0,1-.13.68,2.23,2.23,0,0,1-.27.26c-.65.51-1.95.39-1.88,1.6.19,3.11-1.62,2.87-3.7,2.32A16.1,16.1,0,0,0,411.52,97.41Z" transform="translate(0)"/><path class="cls-1" d="M1250.65,108.89a2.62,2.62,0,0,1-.94-.64,1.71,1.71,0,0,1-.54-1c-.06-.37-.08-.76-.14-1.13a1.12,1.12,0,0,0-1.07-.91c-.25,0-.51,0-.76,0a1.67,1.67,0,0,0-1,.47,3.33,3.33,0,0,0-1,1.58,1.43,1.43,0,0,1-.34.67,7.76,7.76,0,0,1-.84.78,1.84,1.84,0,0,1-1.06.39c-1,0-2.05,0-3.07,0a2.94,2.94,0,0,1-1.79-.55,1.84,1.84,0,0,0-.7-.31,6.53,6.53,0,0,0-2.29,0,2.56,2.56,0,0,0-1,.47,2.65,2.65,0,0,1-1.45.41h-2.69a3,3,0,0,1-1.79-.54,2,2,0,0,0-1.07-.39,6.53,6.53,0,0,1-.76-.08,1.85,1.85,0,0,1-1-.45,2.74,2.74,0,0,1-.91-1.19.82.82,0,0,1,.08-.73,1.06,1.06,0,0,1,.92-.58c.76,0,1.53-.06,2.3-.07a3,3,0,0,0,1.78-.59,1.87,1.87,0,0,1,.71-.24,16,16,0,0,1,2.3-.08,24,24,0,0,0,2.68-.08,1.64,1.64,0,0,0,1-.49c.17-.19.35-.37.51-.57a1.84,1.84,0,0,0,.4-1c0-.38,0-.76,0-1.15a2.68,2.68,0,0,0-.57-1.78c-.25-.29-.43-.63-.69-.91s-.23-.45.1-.62a1.15,1.15,0,0,1,.72-.12,7,7,0,0,0,1.72.82c.62.16.71.68.77,1.18s.09,1.27.14,1.91a.72.72,0,0,0,.1.36,3.54,3.54,0,0,0,1.38,1.28,1.08,1.08,0,0,0,.75,0,1.85,1.85,0,0,0,.66-.36,2.11,2.11,0,0,1,1.4-.52l3.07,0,5,0a2.76,2.76,0,0,0,1.46-.4l.33-.19a2.16,2.16,0,0,1,1.1-.29c1.66,0,3.32,0,5,0l2.3,0a2.37,2.37,0,0,0,1.42-.49,2.37,2.37,0,0,1,1.08-.35c.89-.07,1.78-.09,2.68-.13a1.35,1.35,0,0,0,1-.56.85.85,0,0,0,.15-.35,12.08,12.08,0,0,0,.16-1.9,2,2,0,0,1,1-1.57.48.48,0,0,1,.65.12,7.3,7.3,0,0,0,1,1.59c.1.23.21.46.3.7s.15.49.22.73c.77,1,2.81-.65,3.06,1.45a3.24,3.24,0,0,1-1.65.92,1.43,1.43,0,0,0-.66.36,1.67,1.67,0,0,1-1.05.41c-1.14,0-2.29.07-3.44.1a2.39,2.39,0,0,0-1.44.44c-.1.06-.19.16-.3.23a2.14,2.14,0,0,1-1.07.36l-2.29.08a2.88,2.88,0,0,0-1.43.46,2.69,2.69,0,0,1-1.44.45c-1.54,0-3.07,0-4.6,0-.63,0-1.27,0-1.91.06a1.45,1.45,0,0,0-1,.47,5.39,5.39,0,0,0-.53.54,1.53,1.53,0,0,0-.18,1.45c.18.48.62.8.82,1.27C1252.34,109.48,1251.6,109.39,1250.65,108.89Z" transform="translate(0)"/><path class="cls-1" d="M835.24,158.77a3.75,3.75,0,0,0,1.1.31c.38,0,.76,0,1.14,0,.9.05.9.05,2.1.76a1.44,1.44,0,0,0,1.44-.12,3.5,3.5,0,0,0,.3-.24,2.59,2.59,0,0,0,.9-1.63,4,4,0,0,1,.1-.76.93.93,0,0,1,.69-.8,2.28,2.28,0,0,1,1.13,0c.51.14.72.36.59.73a2.9,2.9,0,0,0-.25,1.1,1,1,0,0,0,.64.84,2.45,2.45,0,0,0,.37.08c1.66.1,3.32.08,5,0a2.65,2.65,0,0,0,.38-.05,1.25,1.25,0,0,0,.65-.35.58.58,0,0,0,.09-.69,3.26,3.26,0,0,1-.22-1.87,2.41,2.41,0,0,1,1.32-1.76,1.07,1.07,0,0,1,.35-.14,2.47,2.47,0,0,1,.38,0,27.2,27.2,0,0,1,3.83,0,1.94,1.94,0,0,1,1,.41,7.36,7.36,0,0,0,1,.57.7.7,0,0,1,.25,1,2.22,2.22,0,0,1-1.47,1.11,1,1,0,0,0-.58,1.24c.07.24.16.48.24.72.15.51-.24.94-.84,1h-.39a1.14,1.14,0,0,1-1.16-.79,3.62,3.62,0,0,0-.28-.71.94.94,0,0,0-1.33-.23,1.26,1.26,0,0,0-.4.62,9,9,0,0,0-.17,1.14,1.39,1.39,0,0,1-.28.7,3.44,3.44,0,0,1-1.81,1.32,1.66,1.66,0,0,0-.65.39c-.67.59-1.32,1.2-2,1.81a.87.87,0,0,1-1,.25,2,2,0,0,0-1.12-.09c-.36.12-.71.25-1-.07s-.59-.5-.89-.73a2.64,2.64,0,0,0-1-.54,3.74,3.74,0,0,1-1.33-.72,2,2,0,0,0-1.45-.33,1.29,1.29,0,0,0-1.29,1.16,4.24,4.24,0,0,1-.24,1.11.85.85,0,0,1-.55.48,3.93,3.93,0,0,1-.75.13c-.51,0-1,0-1.53,0a3.49,3.49,0,0,1-2.17-.6,2,2,0,0,0-1.09-.31L831,164.1c-.26,0-.51,0-.76-.07a1.09,1.09,0,0,1-1-1c-.07-.38-.1-.76-.17-1.14a1.14,1.14,0,0,0-.73-.78l-.69-.33c-.58-.84-.29-1.62.61-1.59C830.64,159.31,832.91,158.64,835.24,158.77Z" transform="translate(0)"/><path class="cls-1" d="M839,146.17c.51,0,1,0,1.53,0a3,3,0,0,1,1.81.51,2.49,2.49,0,0,0,1.44.44h.76a3.16,3.16,0,0,0,1.81-.5,2.52,2.52,0,0,1,1.44-.44c1.4,0,2.81,0,4.21-.09a1.73,1.73,0,0,0,1.06-.37,3.7,3.7,0,0,1,.33-.21,2,2,0,0,1,1.06-.39,4.16,4.16,0,0,0,2.14-.7,1.34,1.34,0,0,1,.72-.23l3.83-.12a1.82,1.82,0,0,0,1.06-.38,2.39,2.39,0,0,1,1-.46c.25-.05.51-.07.76-.1a2.57,2.57,0,0,0,1.39-.58,1.9,1.9,0,0,1,1-.41,18.65,18.65,0,0,1,3.81,0,1.72,1.72,0,0,1,.68.33.94.94,0,0,1,0,1.33,2.8,2.8,0,0,1-.32.2,5.11,5.11,0,0,0-1,.45,3.44,3.44,0,0,1-1,.57,2.71,2.71,0,0,0-1,.48,3,3,0,0,1-1.77.63c-.38,0-.76,0-1.15.06a2,2,0,0,0-1.08.33,3.42,3.42,0,0,1-2.16.62c-.38,0-.76.05-1.14.09a1.48,1.48,0,0,0-.71.25,3,3,0,0,1-1.79.58c-2,0-4.08,0-6.12.06a2.1,2.1,0,0,0-.74.17c-.47.2-.86.56-1.34.74a4.93,4.93,0,0,0-1.33.73,1.91,1.91,0,0,1-1.08.35l-3.06,0a2.85,2.85,0,0,1-1.8-.53,2.42,2.42,0,0,0-1.43-.46c-.63,0-1.27,0-1.91,0a2.24,2.24,0,0,0-1.44.44,3.08,3.08,0,0,1-1.41.53c-1.79.08-3.57.07-5.36,0a1.18,1.18,0,0,1-.69-.25c-.19-.15-.1-.74.15-1.06a2.1,2.1,0,0,1,.57-.5,3,3,0,0,1,.7-.29,2.78,2.78,0,0,0,1-.52,1.86,1.86,0,0,1,.69-.3,3.3,3.3,0,0,1,.76-.1,3,3,0,0,0,1.75-.66,1.4,1.4,0,0,1,.72-.23c.89-.06,1.78-.09,2.67-.13Z" transform="translate(0)"/><path class="cls-1" d="M467.59,91.32a1.55,1.55,0,0,1-1.22.8c-.38,0-.76.09-1.14.16a1.25,1.25,0,0,0-.66.35,4.49,4.49,0,0,0-1.3,1.86,1.48,1.48,0,0,1-.92.61,17.47,17.47,0,0,1-2.29.1,2.92,2.92,0,0,0-1.78.56,2.44,2.44,0,0,1-1.44.43h-2.68a3.43,3.43,0,0,1-2.13-.72.87.87,0,0,0-.33-.17,3.18,3.18,0,0,0-1.88.12,3,3,0,0,0-.65.41,2,2,0,0,1-1.07.33,3.46,3.46,0,0,1-1.84-.42,1.05,1.05,0,0,0-.74-.07,1.64,1.64,0,0,1-.75.08,2,2,0,0,1-.64-.41c-.3-.22-.61-.45-.91-.69a2.7,2.7,0,0,0-1.05-.44,1.85,1.85,0,0,1-.67-.34,2,2,0,0,0-1.38-.57,5.89,5.89,0,0,1-1.51-.18.4.4,0,0,1-.28-.59.59.59,0,0,1,.2-.26.74.74,0,0,1,.36-.09l5.36,0,2.68,0a2.82,2.82,0,0,0,1.44-.43,2.8,2.8,0,0,1,1.45-.44l2.29,0c.64,0,1.28,0,1.91,0a2.66,2.66,0,0,0,1.1-.3,3.48,3.48,0,0,1,2.16-.61c1.28,0,2.55,0,3.83-.07a1.83,1.83,0,0,0,1.06-.36,2.9,2.9,0,0,1,.64-.41,2.14,2.14,0,0,1,.72-.22,22.15,22.15,0,0,1,3.82,0c.31,0,.46.12.91.61C468.74,90.65,467.91,90.87,467.59,91.32Z" transform="translate(0)"/><path class="cls-1" d="M445.92,106.28l-1.46-.07a1.75,1.75,0,0,1-1-.49l-.27-.27a1.08,1.08,0,0,1-.22-1.35,3.79,3.79,0,0,0,.32-1.09c.06-.63.13-1.26.2-1.89a1.24,1.24,0,0,1,.78-.75,6.46,6.46,0,0,1,.75-.11c.64,0,1.27,0,1.91,0a2.6,2.6,0,0,1,2.19,1.29,13.19,13.19,0,0,0,1.22,2.36,1.3,1.3,0,0,1-.24,1.06c-.27.27-.53.55-.81.8a1.7,1.7,0,0,1-1,.47l-.76,0h-1.58Z" transform="translate(0)"/><path class="cls-1" d="M411.52,97.41a4,4,0,0,1,2.09-.76,33.64,33.64,0,0,1,4.14,0,10.57,10.57,0,0,1,1.86.28,6.77,6.77,0,0,0,1.48.21,1.76,1.76,0,0,0,1.53-.91l.29-.69c.09-.24.17-.47.27-.7a1.83,1.83,0,0,1,1.06-1,6.8,6.8,0,0,1,1.1-.27c-.19.51-.66.68-1.11.88a1,1,0,0,0-.61.85,2,2,0,0,0,.21,1.42.79.79,0,0,0,.57.41,2.27,2.27,0,0,0,1.78-.25,3.76,3.76,0,0,1,.69-.25,31.75,31.75,0,0,0,3.9-.1,2.2,2.2,0,0,1,1,.46,1.67,1.67,0,0,0,.73.21,2.79,2.79,0,0,0,1.83-.4l.32-.2a6.54,6.54,0,0,1,.64-.74h0c.33-.31.39-.85.87-1a1.29,1.29,0,0,1,.67.46c.47.91,1.58.78,2.25,1.36l1.35.7c.32.16.39.35.19.55a1,1,0,0,1-.27.23,1.25,1.25,0,0,1-.37.09c-.51,0-1,0-1.53,0-5.6,0-11.2,0-16.8,0l-.77,0a3.07,3.07,0,0,1-1.45-.38,3,3,0,0,0-1.82-.48C415.59,97.33,413.56,97.29,411.52,97.41Z" transform="translate(0)"/><path class="cls-1" d="M1036.19,154.21c-.64,0-1.27,0-1.91-.07a1.92,1.92,0,0,1-1-.38,2.18,2.18,0,0,0-1-.42c-.5-.06-1-.08-1.52-.09a2.24,2.24,0,0,1-2.07-1.4.51.51,0,0,1,.08-.69c.19-.17.33-.39.53-.54a1.45,1.45,0,0,1,1.75-.19,3.38,3.38,0,0,0,1.77.6l.76,0a3.12,3.12,0,0,1,1.8.51,2.7,2.7,0,0,0,1.44.4,17.33,17.33,0,0,1,2.28.12,1.09,1.09,0,0,1,.62.38.81.81,0,0,1-.22,1,3.45,3.45,0,0,1-.28.26,1.87,1.87,0,0,1-1,.41Z" transform="translate(0)"/><path class="cls-1" d="M1279.08,81.87a5,5,0,0,1-1.83.42,2,2,0,0,0-1.3.72,3.47,3.47,0,0,1-.25.29,2,2,0,0,0-.48,1c0,.24-.06.5-.1.75a1.19,1.19,0,0,1-.94,1,2.87,2.87,0,0,1-1.13,0,1.59,1.59,0,0,1-.7-.28c-.3-.23-.59-.48-.86-.73a5,5,0,0,0-1.63-.95c-.56-.2-.71-.58-.6-1.21a.58.58,0,0,1,.14-.35,3.63,3.63,0,0,1,.64-.36c.63-.05,1.27-.12,1.9-.15a1.94,1.94,0,0,0,1-.41c.51-.37,1-.78,1.5-1.16a1.3,1.3,0,0,1,.71-.23c.51,0,1-.06,1.52,0a2,2,0,0,1,1.68.74,2.44,2.44,0,0,1,.6,1Z" transform="translate(0)"/><path class="cls-1" d="M1927.71,156.42a.93.93,0,0,1-.76.72c-.25,0-.51,0-.76,0a2.61,2.61,0,0,1-1.1-.26,3.12,3.12,0,0,0-2.14-.66,6.2,6.2,0,0,1-1.14-.1,1.78,1.78,0,0,1-.7-.28,4.17,4.17,0,0,0-1.31-.75,2.94,2.94,0,0,1-1-.54,11.25,11.25,0,0,0-1.47-1.21,3.33,3.33,0,0,1-.66-.38.65.65,0,0,1-.21-.67,2.12,2.12,0,0,1,.66-.91.84.84,0,0,1,.34-.17,1.3,1.3,0,0,1,1.09.06,5.13,5.13,0,0,0,1.36.69,2.7,2.7,0,0,1,1,.54,3.5,3.5,0,0,0,.3.24,6.12,6.12,0,0,0,1,.44,3.66,3.66,0,0,1,.67.37,2.76,2.76,0,0,0,1,.49,2.54,2.54,0,0,1,1,.49,1.62,1.62,0,0,0,.69.32c.38.06.76.09,1.14.15a1,1,0,0,1,.85.64c-.21.18-.27.35-.19.51S1927.63,156.42,1927.71,156.42Z" transform="translate(0)"/><path class="cls-1" d="M388.48,99l-.9.7c-.2.15-.41.29-.63.43a.85.85,0,0,1-.34.14,8.05,8.05,0,0,0-1.71.79,1.47,1.47,0,0,1-1.11,0,5.33,5.33,0,0,0-1.38-.61,12.8,12.8,0,0,0-1.52,0c-.51,0-1,.09-1.52.13l-.5,0a8.86,8.86,0,0,1-3-.3c-.45-.31-.74-.68-.45-1.25a11.5,11.5,0,0,0,2.27.14,2.61,2.61,0,0,0,1.75-.6,8.32,8.32,0,0,1,1.21-.91,1.48,1.48,0,0,1,1.44-.08c.23.11.44.25.66.37a1.52,1.52,0,0,0,.72.22,22.49,22.49,0,0,0,4.92-.12A.68.68,0,0,1,388.48,99Z" transform="translate(0)"/><path class="cls-1" d="M1263,86.35c-.53,0-1,0-1.54-.09a2.59,2.59,0,0,1-.72-.21,1.08,1.08,0,0,1-.64-.88,10.61,10.61,0,0,1,0-3,1.08,1.08,0,0,1,.38-.63,1.45,1.45,0,0,1,1.44,0c.19.16.4.31.58.48l2.7,2.68a2.17,2.17,0,0,1,.23.3,1.71,1.71,0,0,1,.32.68c0,.18-.59.61-.89.63Z" transform="translate(0)"/><path class="cls-1" d="M725.38,165a.89.89,0,0,1-.73-.1,3.85,3.85,0,0,0-2.12-.71,2.33,2.33,0,0,1-1.08-.32,6.79,6.79,0,0,0-1-.52,5.13,5.13,0,0,1-1.33-.7,9.43,9.43,0,0,0-1.36-.65,3.27,3.27,0,0,1-1.3-1.33.81.81,0,0,1,.07-.71.46.46,0,0,1,.64-.2,5.54,5.54,0,0,0,1.84.42,2.3,2.3,0,0,1,1.4.5,1.72,1.72,0,0,0,.68.33,3.46,3.46,0,0,1,1.36.63,1,1,0,0,0,.31.22,7.65,7.65,0,0,1,2,1.05,7.43,7.43,0,0,0,1,.48.89.89,0,0,1,.38,1C726.05,164.74,725.87,164.89,725.38,165Z" transform="translate(0)"/><path class="cls-1" d="M1726.5,118.23a3.25,3.25,0,0,1-1.77-.61,1.87,1.87,0,0,0-.71-.24,6.53,6.53,0,0,0-.76-.08l-1.14-.07a1.23,1.23,0,0,1-1.06-.93c0-.25-.08-.5-.1-.75a8,8,0,0,0-.54-2.56.54.54,0,0,1,.28-.66,1.32,1.32,0,0,1,.71-.21,1.75,1.75,0,0,1,1.41.4,20.88,20.88,0,0,1,2.15,2.16,1.54,1.54,0,0,1,.17.34,3.44,3.44,0,0,1,.62.75c.1.2.21.41.31.62.25.49.28.52.7.7l.65.26C1727.52,118.07,1727.29,118.45,1726.5,118.23Z" transform="translate(0)"/><path class="cls-1" d="M483.53,94.75a3.8,3.8,0,0,1,.72-.88,1.56,1.56,0,0,1,.59-.47,10.44,10.44,0,0,0,2-1.06,1.37,1.37,0,0,1,.72-.2,32.7,32.7,0,0,1,3.43,0,1,1,0,0,1,.38.06,3.6,3.6,0,0,1,.62.39.62.62,0,0,1,.15.35.92.92,0,0,1-.28,1c-.09.08-.18.21-.29.23a5.55,5.55,0,0,0-1.36.67,2.25,2.25,0,0,1-1.08.32c-.77,0-1.53,0-2.29.06a3.38,3.38,0,0,0-1.79.59C483.92,96.38,483.36,96.08,483.53,94.75Z" transform="translate(0)"/><path class="cls-1" d="M456.76,86.76c-.36-.13-.7-.28-1.06-.39a2.83,2.83,0,0,0-1.5,0,.89.89,0,0,0-.34.16c-.59.47-1.16,1-1.76,1.43a1.42,1.42,0,0,1-1.09.17,1,1,0,0,1-.33-.17,4.51,4.51,0,0,0-1.35-.68,1.12,1.12,0,0,1-.77-.74,1.11,1.11,0,0,1,.05-.74.56.56,0,0,1,.53-.46c.25,0,.5-.11.75-.11H460.5a4.85,4.85,0,0,1,.75.11,1.11,1.11,0,0,1,.14.34.45.45,0,0,1-.14.27.85.85,0,0,1-.32.19l-1.81.55A12.4,12.4,0,0,0,456.76,86.76Z" transform="translate(0)"/><path class="cls-1" d="M1287.68,77.34a14.82,14.82,0,0,1,1.12,1,4.15,4.15,0,0,0,1.58,1,1.06,1.06,0,0,1,.67,1.19,1.27,1.27,0,0,1-.6.9,1.3,1.3,0,0,1-1,.41.91.91,0,0,1-.35-.07,2.48,2.48,0,0,0-1.42-.39,7.21,7.21,0,0,1-1.86-.18,1,1,0,0,1-.53-.49,1.44,1.44,0,0,1-.1-.37,6.81,6.81,0,0,1,0-1.86,1.86,1.86,0,0,1,.35-1,4.6,4.6,0,0,0,.64-1.34C1287.53,75.41,1286.81,77.31,1287.68,77.34Z" transform="translate(0)"/><path class="cls-1" d="M1285.13,66.81a2.24,2.24,0,0,1,.95-2,2.05,2.05,0,0,1,.67-.35,1.08,1.08,0,0,1,.75,0,2.13,2.13,0,0,1,.35.14,2.6,2.6,0,0,1,1.21,1.42,9,9,0,0,0,.81,1.72,1.14,1.14,0,0,1,0,1.09,5.17,5.17,0,0,1-1,1.17,1.35,1.35,0,0,1-1.42.07,15.5,15.5,0,0,1-1.66-1.58A2.15,2.15,0,0,1,1285.13,66.81Z" transform="translate(0)"/><path class="cls-1" d="M866.43,158.15c-.64,0-1.27,0-1.9-.05a2.38,2.38,0,0,1-1.67-.79,2.1,2.1,0,0,1-.46-.59,1.29,1.29,0,0,1,.05-1.1,1.17,1.17,0,0,1,.57-.47,1.11,1.11,0,0,1,.37-.07,13,13,0,0,1,2.65,0,1.85,1.85,0,0,1,1.07.35,3.9,3.9,0,0,0,2.1.79,1.19,1.19,0,0,1,.34.13,2.59,2.59,0,0,1,.33.19,1.18,1.18,0,0,1,.16,1.07,1.15,1.15,0,0,1-.58.44,2.71,2.71,0,0,1-.75.1c-.76,0-1.52,0-2.28,0Z" transform="translate(0)"/><path class="cls-1" d="M1147.74,127.83c-.17-.19-.33-.38-.51-.56a1.7,1.7,0,0,0-1-.47,12.8,12.8,0,0,0-1.51-.12h-8.36c-1.27,0-2.53,0-3.8-.1a1.94,1.94,0,0,1,1-.42c.76,0,1.53-.05,2.29-.06h8c.89,0,1.78,0,2.67,0a2.41,2.41,0,0,0,1.42-.46l1.23-.9a.77.77,0,0,1,1,.09,3.86,3.86,0,0,1,.53.54,1.18,1.18,0,0,1,.26,1.07,1,1,0,0,1-.7.8,1.63,1.63,0,0,1-.37.08A5.44,5.44,0,0,0,1147.74,127.83Z" transform="translate(0)"/><path class="cls-1" d="M1271.41,114.28c0-.3,0-.6-.05-.9a2.67,2.67,0,0,0,.72-1.73,2.14,2.14,0,0,1,.16-.75.76.76,0,0,1,.51-.52,2.42,2.42,0,0,1,.36-.1,6.43,6.43,0,0,1,1.91,0,1.92,1.92,0,0,1,1,.43c.29.25.61.47.9.71a2.63,2.63,0,0,0,1.42.53c-.13.22-.24.44-.37.65a1.52,1.52,0,0,1-.88.63,3.48,3.48,0,0,1-.73.13,2.65,2.65,0,0,0-1.35.53,1.87,1.87,0,0,1-1,.36Z" transform="translate(0)"/><path class="cls-1" d="M1236.07,90.49v-.78a2.29,2.29,0,0,1,.4-1.42,8.1,8.1,0,0,0,.59-1,.79.79,0,0,1,1.21-.37c.1.08.22.14.31.22a18.44,18.44,0,0,1,1.86,1.89,1.08,1.08,0,0,1,0,1.36c-.08.09-.17.18-.25.28a1.43,1.43,0,0,1-1,.52,7.67,7.67,0,0,0-2.21.48.6.6,0,0,1-.81-.48C1236.12,91,1236.09,90.72,1236.07,90.49Z" transform="translate(0)"/><path class="cls-1" d="M756.71,163.15H759a6.57,6.57,0,0,0,2.56-.55.55.55,0,0,1,.65.23c.25.43.35.93.64,1.36s.18.56-.17,1c-.55.7-.89.73-1.59.29s-1.47-.41-2-1a1.55,1.55,0,0,0-1.45,0l-.32.18a1.87,1.87,0,0,1-.32.2,1.43,1.43,0,0,1-1.44,0,3.39,3.39,0,0,0-2.13-.66,3.08,3.08,0,0,1-.74-.11.64.64,0,0,1-.27-.2c-.29-.28-.24-.44.17-.5.24,0,.49-.12.73-.13l3.42-.07Z" transform="translate(0)"/><path class="cls-1" d="M1279,82a7.19,7.19,0,0,0,1.13.18c1.27,0,2.54-.05,3.81.09l.37.07a1.3,1.3,0,0,1,.73.8,2.69,2.69,0,0,1,0,1.13.91.91,0,0,1-.68.81,2.62,2.62,0,0,1-1.85,0,1,1,0,0,1-.33-.18,2.21,2.21,0,0,0-1-.51,2.82,2.82,0,0,1-1.75-1.36,2.76,2.76,0,0,1-.36-1.08Z" transform="translate(0)"/><path class="cls-1" d="M446,86.65a6,6,0,0,1,.13.72.94.94,0,0,1-.7.76c-.37,0-.74.11-1.11.12l-4.49,0a4,4,0,0,0-1.44.31c-.56.22-.91-.17-.77-.79a.73.73,0,0,1,.13-.34c.25-.28.53-.53.79-.8.46-.8,1.7,0,2.07-1l-.08.06a1.65,1.65,0,0,1,1.75.07l-.07,0C443.3,86.92,444.92,85.66,446,86.65Z" transform="translate(0)"/><path class="cls-1" d="M439.18,103.43c-.12,0-.25,0-.37,0-.36,0-.74,0-1,.37a1.41,1.41,0,0,0-.26.67,3.31,3.31,0,0,1-.23,1.08,1.05,1.05,0,0,1-.51.51,2.26,2.26,0,0,1-1.45.15,1.12,1.12,0,0,1-.94-1c0-.49,0-1-.06-1.48-.05-1.52.82-1.48,1.88-1.11a1.6,1.6,0,0,0,1.42-.27,4,4,0,0,1,.72-.22,2.69,2.69,0,0,1,.75,0,1.12,1.12,0,0,1,.92.55A.86.86,0,0,1,439.18,103.43Z" transform="translate(0)"/><path class="cls-1" d="M1959.91,156.64a6.59,6.59,0,0,0-2-.1,1.79,1.79,0,0,0-1.55.43,7.18,7.18,0,0,0-2.59-.58,3.84,3.84,0,0,1-.75-.09,1,1,0,0,1-.36-.13.76.76,0,0,1-.23-.3.63.63,0,0,1,.08-.68,1,1,0,0,1,.7-.26c.64,0,1.27-.06,1.91-.07l6.5,0C1962,156.33,1960.79,156.33,1959.91,156.64Z" transform="translate(0)"/><path class="cls-1" d="M1270,70.25a9.84,9.84,0,0,1,.11-2,1.66,1.66,0,0,1,.16-.33,1,1,0,0,1,1.58-.18c.09.09.2.18.22.29.11.49.17,1,.27,1.47a12.83,12.83,0,0,0,.64,1.35,1.22,1.22,0,0,1-.1,1.07,5.38,5.38,0,0,1-.76.83c-.25.26-.61.23-1,0a5.27,5.27,0,0,1-.57-.49,1.44,1.44,0,0,1-.5-1C1270,70.85,1270,70.47,1270,70.25Z" transform="translate(0)"/><path class="cls-1" d="M1288.33,98.25a.89.89,0,0,1-.75.71c-2.36.09-4.86,1.42-7-.8h0a1.89,1.89,0,0,1,.78-.59,3.09,3.09,0,0,1,.7-.25c.49,0,1-.06,1.49-.08a2.44,2.44,0,0,0,1.7-.63,1.22,1.22,0,0,1,1.38-.14c.11.07.22.13.31.2a5.23,5.23,0,0,0,1.29.75C1288.82,97.67,1288.83,97.94,1288.33,98.25Z" transform="translate(0)"/><path class="cls-1" d="M1067,144.86a1.79,1.79,0,0,1,1.28-.72c.51,0,1-.07,1.52-.08a2.76,2.76,0,0,0,1.41-.5,2.39,2.39,0,0,1,1.43-.41,2.06,2.06,0,0,1,2,.93.87.87,0,0,1,0,1l-.46.6a1.23,1.23,0,0,1-1.37.36,2.79,2.79,0,0,1-.34-.18c-.88-1.08-2-.5-3-.4l-.07.08a.57.57,0,0,1-.66.38c-.42-.14-.84-.25-1.25-.4A1.27,1.27,0,0,1,1067,144.86Z" transform="translate(0)"/><path class="cls-1" d="M835.24,158.77c-.59.15-1.19.29-1.77.48a8.43,8.43,0,0,1-2.16.37,13.41,13.41,0,0,0-2.2.14,1.68,1.68,0,0,0-1,.49l-.46.57a2.33,2.33,0,0,0-1.81.16,1.1,1.1,0,0,1-1-.15.56.56,0,0,1,0-.69l.21-.31a1.71,1.71,0,0,1,1.24-.75c.63-.06,1.25-.08,1.88-.09l3.38,0a2.91,2.91,0,0,0,1.75-.59,1.06,1.06,0,0,1,.34-.16,1.52,1.52,0,0,1,1.09,0A1.07,1.07,0,0,1,835.24,158.77Z" transform="translate(0)"/><path class="cls-1" d="M1168.53,131.05a1.06,1.06,0,0,1-.8,0c-.26-.23-.54-.45-.82-.66v0c-.53-1.46,1.55-.93,1.52-2a.69.69,0,0,1,.87-.23c.28.21.57.41.86.6a8.38,8.38,0,0,1,1.23.89,2.06,2.06,0,0,0,1,.44,14,14,0,0,1,2.66.19.9.9,0,0,1,.52.51c-.1.07-.2.15-.3.21a.93.93,0,0,1-.35.13,23.19,23.19,0,0,1-3.82,0,1.85,1.85,0,0,1-1.06-.38,4.6,4.6,0,0,0-.64-.4A3.45,3.45,0,0,0,1168.53,131.05Z" transform="translate(0)"/><path class="cls-1" d="M1230.17,101.14a1.08,1.08,0,0,1-1-1c0-.12,0-.25,0-.37a2.23,2.23,0,0,1,1.15-2.18,1.45,1.45,0,0,1,1.06-.18.6.6,0,0,1,.57.43,3.27,3.27,0,0,1,.14.33,5,5,0,0,1-.06,2.22.93.93,0,0,1-.77.7A3.35,3.35,0,0,1,1230.17,101.14Z" transform="translate(0)"/><path class="cls-1" d="M1262.16,71.84s0-.35.07-.72a1,1,0,0,1,.8-.65,1.53,1.53,0,0,1,1,.34l.29.23a1.87,1.87,0,0,1,.79,1.59c0,.25-.06.49-.09.74a1,1,0,0,1-.7.77,2.41,2.41,0,0,1-1.1.1,1.09,1.09,0,0,1-1-.91,2.29,2.29,0,0,1-.07-.36C1262.15,72.72,1262.16,72.47,1262.16,71.84Z" transform="translate(0)"/><path class="cls-1" d="M431.34,105.81a3.12,3.12,0,0,1-.66.91,2.13,2.13,0,0,1-1.32.65,12.12,12.12,0,0,1-3-.05.61.61,0,0,1-.52-.43.52.52,0,0,1,.29-.64,2.35,2.35,0,0,1,.7-.26,7.44,7.44,0,0,0,1.49-.22c.35-.13.68-.31.74-.76,0-.24.09-.49.14-.74a2,2,0,0,1,.52-1,1.14,1.14,0,0,1,.77.42,7.69,7.69,0,0,1,.36,1.33A5.54,5.54,0,0,0,431.34,105.81Z" transform="translate(0)"/><path class="cls-1" d="M1274.44,100.4a4.68,4.68,0,0,0-1.76-.72,4.79,4.79,0,0,1-.73-.24,1.34,1.34,0,0,1-.57-.49h5.72a10.1,10.1,0,0,0,1.9-.17,1.35,1.35,0,0,1,1,1,1.72,1.72,0,0,1-1.26.61A37,37,0,0,1,1274.44,100.4Z" transform="translate(0)"/><path class="cls-1" d="M1242.05,74.51a13.7,13.7,0,0,1,.11-2.17c.06-.32.2-.48.48-.43a.46.46,0,0,1,.31.12c.28.41.54.86.83,1.27a2.53,2.53,0,0,1,.42,1.81,2.08,2.08,0,0,1-1.33,1.7.54.54,0,0,1-.61-.32,1.25,1.25,0,0,1-.13-.35C1242.09,75.5,1242.06,74.87,1242.05,74.51Z" transform="translate(0)"/><path class="cls-1" d="M1269.78,62.22a1.24,1.24,0,0,1,1.35,1.06,6,6,0,0,1,0,1.89.75.75,0,0,1-.86.51,2.3,2.3,0,0,1-1.08-1c-.08-.64-.49-1.17-.55-1.81a.46.46,0,0,1,.41-.53C1269.28,62.26,1269.53,62.25,1269.78,62.22Z" transform="translate(0)"/><path class="cls-1" d="M1256.55,72.27c-.38,0-.75,0-1.13,0a2.23,2.23,0,0,1-1.87-1.06.45.45,0,0,1,.06-.65,2.36,2.36,0,0,1,.62-.4c.58-.23,1-.73,1.59-1a1.17,1.17,0,0,1,1,.35,3.28,3.28,0,0,1,.2.31c.2.46.39.92.58,1.38C1257.8,72.16,1257.38,72.44,1256.55,72.27Z" transform="translate(0)"/><path class="cls-1" d="M431.34,105.81h-.65c-.65-.6-.11-1.53-.63-2.16-.12-.12-.23-.24-.35-.35.16-.2.31-.41.48-.6a2,2,0,0,1,1.32-.68,27.88,27.88,0,0,1,3.42,0,1.71,1.71,0,0,1,1.32.63,3.13,3.13,0,0,0-1.88,1.11l-.75-.14a3.06,3.06,0,0,0-1.13,0,.92.92,0,0,0-.78.72A15,15,0,0,1,431.34,105.81Z" transform="translate(0)"/><path class="cls-1" d="M1279.92,92.71c.53.25.68.39.81.72a.62.62,0,0,1-.47.86,10.75,10.75,0,0,1-1.13.09,5.6,5.6,0,0,0-2.21.45.49.49,0,0,1-.66-.21,1.07,1.07,0,0,1-.17-.7,1.17,1.17,0,0,1,.14-.35,3.82,3.82,0,0,1,1-1.12,2.45,2.45,0,0,1,2.17-.25.86.86,0,0,1,.29.21,3.4,3.4,0,0,1,.23.3C1279.85,92.77,1279.93,92.7,1279.92,92.71Z" transform="translate(0)"/><path class="cls-1" d="M1959.91,156.64a4.91,4.91,0,0,1,1.18-1.31,5.9,5.9,0,0,0,.5-.5.87.87,0,0,1,1-.33.7.7,0,0,1,.45.54,6.09,6.09,0,0,0,.27.71,6,6,0,0,0,.32.68.52.52,0,0,1-.12.69c-.77.81-1,.86-2,.38a2.31,2.31,0,0,0-.7-.27,1.37,1.37,0,0,1-.68-.31A3.33,3.33,0,0,1,1959.91,156.64Z" transform="translate(0)"/><path class="cls-1" d="M483.53,94.75a4.25,4.25,0,0,0,1.53,1.09,1.2,1.2,0,0,1-.64.37,6.72,6.72,0,0,1-1.9,0,1.72,1.72,0,0,1-1-.39,2.67,2.67,0,0,0-1.74-.66,1.1,1.1,0,0,1-.7-.26c-.17-.15-.15-.41.12-.56.43-.26.91-.45,1.36-.67s.55-.17,1,.19l.29.25A2,2,0,0,0,483.53,94.75Z" transform="translate(0)"/><path class="cls-1" d="M1280,99.8a7.23,7.23,0,0,1-1-1c.32-.42.51-.58.87-.62s.5,0,.75,0a4.71,4.71,0,0,0,2.14.57l3,0a9.51,9.51,0,0,1,1.85.18,2.42,2.42,0,0,1-1.08.35c-1.4,0-2.81.06-4.21.07A6.65,6.65,0,0,0,1280,99.8Z" transform="translate(0)"/><path class="cls-1" d="M498.4,92.14a.67.67,0,0,1,.32-.64,1.1,1.1,0,0,1,.67-.24,2,2,0,0,1,.71.18c.45.2.82.54,1.29.71a.57.57,0,0,1,.39.53c0,.31-.11.45-.4.53a4.21,4.21,0,0,1-2.2,0A1,1,0,0,1,498.4,92.14Z" transform="translate(0)"/><path class="cls-1" d="M790,166.4l-.06,1.67c-1.15,0-2.3,0-3.45,0a1.61,1.61,0,0,1-1.07-.34c-.38-.33-.9-.45-1.28-.8-.08-.07-.18-.21-.16-.29a.44.44,0,0,1,.26-.26,3.45,3.45,0,0,1,2.94.17l.32.2a1.44,1.44,0,0,0,1.46.06A2.55,2.55,0,0,1,790,166.4Z" transform="translate(0)"/><path class="cls-1" d="M1275.8,63.57c-.48-1.13-.37-1.32.82-1.36a1.6,1.6,0,0,1,.38,0,2.37,2.37,0,0,1,.36.09,1,1,0,0,1,.7,1.16,1.82,1.82,0,0,1-1.2,1.32c-.29.15-.49.1-.62-.19,0-.11-.11-.21-.16-.33S1275.89,63.81,1275.8,63.57Z" transform="translate(0)"/><path class="cls-1" d="M1295.34,75.28l-.37,0a1,1,0,0,1-.77-.69,1,1,0,0,1,.29-1,1.32,1.32,0,0,1,.66-.32,3.14,3.14,0,0,1,1.1.05,1.05,1.05,0,0,1,.77.73.9.9,0,0,1-.58,1.17A2.31,2.31,0,0,1,1295.34,75.28Z" transform="translate(0)"/><path class="cls-1" d="M375.43,98.92a4.29,4.29,0,0,0,1,.92c.78.46,1.76,0,2.53.51a1.69,1.69,0,0,0,.43.15,1.32,1.32,0,0,1-1.21.7h-1.49a1.83,1.83,0,0,1-1.06-.3,5.44,5.44,0,0,0-1.3-.7.9.9,0,0,1-.29-1,1.72,1.72,0,0,1,.52-.52,1.26,1.26,0,0,1,.34-.13C375.13,98.51,375.32,98.63,375.43,98.92Z" transform="translate(0)"/><path class="cls-1" d="M1218.2,107.14a.74.74,0,0,1-.57.64.62.62,0,0,1-.68-.19c-.18-.18-.37-.34-.54-.52a1,1,0,0,1-.25-.69c0-.13,0-.25,0-.37,0-.61.89-1,1.42-.71a1.26,1.26,0,0,1,.61.89C1218.21,106.44,1218.2,106.69,1218.2,107.14Z" transform="translate(0)"/><path class="cls-1" d="M1068.58,145.52a5,5,0,0,1,.76.06,1.75,1.75,0,0,1-1.23.79,9.74,9.74,0,0,1-3-.06c-.3-.05-.67-.55-.57-.83a.79.79,0,0,1,.55-.47,5.56,5.56,0,0,1,1.86-.15.91.91,0,0,1,.49.08C1067.71,145.34,1068.21,145.31,1068.58,145.52Z" transform="translate(0)"/><path class="cls-1" d="M430.77,96.51l-.66.4a2.72,2.72,0,0,1-2.57.07c-.23-.11-.45-.25-.67-.37a1.1,1.1,0,0,1,.64-.33,11,11,0,0,1,2.57,0A1.65,1.65,0,0,1,430.77,96.51Z" transform="translate(0)"/><path class="cls-1" d="M444.05,110.4a4.79,4.79,0,0,1-1.92-.19c-.3-.1-.4-.26-.29-.57a.7.7,0,0,1,.44-.52,4,4,0,0,1,2.19,0,.76.76,0,0,1,.46.51c.11.3,0,.47-.28.58a2.44,2.44,0,0,1-.7.2Z" transform="translate(0)"/><path class="cls-1" d="M818.6,160.13l-.88.79c-.49-.12-.91-.46-1.42-.55s-.75-.11-1.13-.19a.61.61,0,0,1-.3-.23.53.53,0,0,1,.09-.64.69.69,0,0,1,.33-.19,4.44,4.44,0,0,1,2.26,0,1.23,1.23,0,0,1,.65.38A1.7,1.7,0,0,1,818.6,160.13Z" transform="translate(0)"/><path class="cls-1" d="M473.82,95.18a5.74,5.74,0,0,1-1.49-.05,1,1,0,0,1-.64-.35.81.81,0,0,1-.18-.68.9.9,0,0,1,.75-.71,1.19,1.19,0,0,1,.72.09,6.18,6.18,0,0,0,2.06.84c.24,0,.4.24.51.49a1.2,1.2,0,0,1-.6.32,1.58,1.58,0,0,1-.38.05Z" transform="translate(0)"/><path class="cls-1" d="M1726.5,118.23a4,4,0,0,0,.92-.88c.63.09,1.11.56,1.72.7a1,1,0,0,1,.61.41,1.32,1.32,0,0,1,.1,1.07.56.56,0,0,1-.56.38,1,1,0,0,1-.36-.07,12.71,12.71,0,0,0-1.38-.59A2,2,0,0,1,1726.5,118.23Z" transform="translate(0)"/><path class="cls-1" d="M467.59,91.32c.22-.49.45-1,.67-1.49a4.66,4.66,0,0,0,1.8.39,4,4,0,0,1,1.46.18.46.46,0,0,1,.33.54,1,1,0,0,1-1.37.79l-.34-.14a2.48,2.48,0,0,0-1.07-.26C468.58,91.31,468.08,91.32,467.59,91.32Z" transform="translate(0)"/><path class="cls-1" d="M434,94a1,1,0,0,1-.38,0,1.68,1.68,0,0,1-1-1,.59.59,0,0,1,.22-.67,1,1,0,0,1,1.38.1,1.05,1.05,0,0,1,.1,1.39C434.24,93.89,434.12,93.94,434,94Z" transform="translate(0)"/><path class="cls-1" d="M396.12,101.94c0,.52,0,1,0,1.57-1,.51-2.09,1.06-3-.29.1-.21.18-.44.28-.65a1.14,1.14,0,0,1,.85-.57A8.84,8.84,0,0,1,396.12,101.94Z" transform="translate(0)"/><path class="cls-1" d="M388.48,99c0-.36-.05-.71-.08-1.07a1.36,1.36,0,0,1,1.21-.68,6.59,6.59,0,0,1,1.83.12.57.57,0,0,1,.3.21c.1.14,0,.38-.24.51a11.24,11.24,0,0,0-1.26.74,1.76,1.76,0,0,1-1.41.26Z" transform="translate(0)"/><path class="cls-1" d="M1288.33,98.25l0-.83a2.33,2.33,0,0,1,.36-.08,11.13,11.13,0,0,1,3.31,0c.27.16.4.32.32.47a.49.49,0,0,1-.26.25,2.55,2.55,0,0,1-.72.14C1290.31,98.24,1289.32,98.24,1288.33,98.25Z" transform="translate(0)"/><path class="cls-1" d="M1250.65,108.89a5.81,5.81,0,0,0,1.61-.86l.76.1a.77.77,0,0,1,.6.39c.12.22-.38.64-.78.69a2.47,2.47,0,0,1-.38.05c-.38,0-.76,0-1.14,0A1,1,0,0,1,1250.65,108.89Z" transform="translate(0)"/><path class="cls-1" d="M393.21,103.22a5.73,5.73,0,0,0,1.83.28c.38,0,.75,0,1.12,0,0,.24.06.48.11.72.09.5-.64,1.06-1.32.78a3.31,3.31,0,0,0-1.74-.42Z" transform="translate(0)"/><path class="cls-1" d="M1260.38,91.6a1.48,1.48,0,0,1,.25-.25,1.1,1.1,0,0,1,1.38.19,1.26,1.26,0,0,1,.09,1.09.45.45,0,0,1-.61.32,1.77,1.77,0,0,1-1.1-1A1,1,0,0,1,1260.38,91.6Z" transform="translate(0)"/><path class="cls-1" d="M456.76,86.76a5.85,5.85,0,0,1,.63-.38,1.37,1.37,0,0,1,1.07,0,5.8,5.8,0,0,1,.66.33.91.91,0,0,1-.79.58,2.49,2.49,0,0,1-1.05-.06A.8.8,0,0,1,456.76,86.76Z" transform="translate(0)"/><path class="cls-1" d="M1159.8,130.81a.48.48,0,0,1-.51-.38,1,1,0,0,1,.59-1.2.56.56,0,0,1,.68.22.62.62,0,0,1,.1.67,1.49,1.49,0,0,1-.52.54A1.75,1.75,0,0,1,1159.8,130.81Z" transform="translate(0)"/><path class="cls-1" d="M446,86.65c-.61,0-1.22,0-1.82,0a2.94,2.94,0,0,1-2-.86,12.77,12.77,0,0,0,2.89.35C445.45,86.15,445.54,86.2,446,86.65Z" transform="translate(0)"/><path class="cls-1" d="M482.32,85.14a.73.73,0,0,1,.66.26.44.44,0,0,1-.12.62.71.71,0,0,1-.67.19.67.67,0,0,1-.54-.43.4.4,0,0,1,.3-.57A2.2,2.2,0,0,1,482.32,85.14Z" transform="translate(0)"/><path class="cls-1" d="M1259.43,77.65a1.55,1.55,0,0,1,.66-.86.63.63,0,0,1,.91.26.76.76,0,0,1-.54,1.1,1,1,0,0,1-.7,0C1259.48,78,1259.38,77.84,1259.43,77.65Z" transform="translate(0)"/><path class="cls-1" d="M1192.56,127.2a9,9,0,0,1-.88-.59,5.07,5.07,0,0,0-1.57-.8,1.11,1.11,0,0,1,2,0C1192.29,126.24,1192.42,126.72,1192.56,127.2Z" transform="translate(0)"/><path class="cls-1" d="M431.28,88.14c.35,0,.6,0,.84.09a.78.78,0,0,1,.58.41.82.82,0,0,1-.51.45,3.09,3.09,0,0,1-1.83,0,.67.67,0,0,1-.27-.24.33.33,0,0,1,.19-.54A3.85,3.85,0,0,1,431.28,88.14Z" transform="translate(0)"/><path class="cls-1" d="M1069.41,145.5a1.74,1.74,0,0,1,1.6-.54,1.77,1.77,0,0,1,1.22.65,3,3,0,0,1,.2.29l-.33-.08A6,6,0,0,0,1069.41,145.5Z" transform="translate(0)"/><path class="cls-1" d="M1168.44,128.41a9.52,9.52,0,0,1-1.52,2,.69.69,0,0,1-.43-.56c0-.36.13-.62.58-.82.23-.1.46-.19.69-.3Z" transform="translate(0)"/><path class="cls-1" d="M823,167.21l.85-.83a1.73,1.73,0,0,1,.91.59c.42.43.38.87-.29,1.06a1,1,0,0,1-.72-.05C823.36,167.83,823.28,167.74,823,167.21Z" transform="translate(0)"/><path class="cls-1" d="M439.1,96.63c-.34-.06-.69-.11-1-.19a1.57,1.57,0,0,1-.84-.59,5.25,5.25,0,0,1-.38-.58,1.19,1.19,0,0,1,.59.3,2.9,2.9,0,0,0,1.17.63A.9.9,0,0,1,439.1,96.63Z" transform="translate(0)"/><path class="cls-1" d="M1956.33,157c.15-.34.16-.79.58-.92s.68.25,1,.49a1.14,1.14,0,0,1-1.21.54A1.93,1.93,0,0,1,1956.33,157Z" transform="translate(0)"/><path class="cls-1" d="M1287.68,77.34a1.62,1.62,0,0,1-.89-.52c-.23-.25-.44-.53-.66-.79a.45.45,0,0,1,.34-.52.6.6,0,0,1,.6.21.81.81,0,0,1,.19.29A6.06,6.06,0,0,1,1287.68,77.34Z" transform="translate(0)"/><path class="cls-1" d="M1267.2,76.87c0-.3.11-.5.4-.51a.38.38,0,0,1,.41.48.41.41,0,0,1-.2.28A.4.4,0,0,1,1267.2,76.87Z" transform="translate(0)"/><path class="cls-1" d="M836.71,154.08a1.31,1.31,0,0,1,.95.28c.22.18.2.38-.1.54a1.55,1.55,0,0,1-1.71-.1c-.21-.19-.2-.36.1-.54A1.64,1.64,0,0,1,836.71,154.08Z" transform="translate(0)"/><path class="cls-1" d="M1256.55,72.27a5.34,5.34,0,0,0,1.06-1,1,1,0,0,1,.64,1.1.69.69,0,0,1-.32.59.88.88,0,0,1-1-.13A1.47,1.47,0,0,1,1256.55,72.27Z" transform="translate(0)"/><path class="cls-1" d="M439.18,103.43l.88-.75a.57.57,0,0,1,.35.61.82.82,0,0,1-.09.35.59.59,0,0,1-.95.11A1.42,1.42,0,0,1,439.18,103.43Z" transform="translate(0)"/><path class="cls-1" d="M440.63,85.69c-.07.08-.14.18-.22.26a2.06,2.06,0,0,1-1.17.64c-.22,0-.45.06-.68.08a.93.93,0,0,1,.47-.45C439.56,86,440.1,85.86,440.63,85.69Z" transform="translate(0)"/><path class="cls-1" d="M1143.22,131.29a1.36,1.36,0,0,1,1.06-.13c.25.07.47.23.44.46s-.27.39-.54.41a.91.91,0,0,1-.68-.19.59.59,0,0,1-.21-.64Z" transform="translate(0)"/><path class="cls-1" d="M1097.06,141l0,.93c-.58.2-.65.21-1,.13s-.47-.2-.49-.44.19-.4.42-.47a1.89,1.89,0,0,1,.34-.09Z" transform="translate(0)"/><path class="cls-1" d="M1190.68,128.92a11,11,0,0,1,2.22-.12.79.79,0,0,1-.55.39,3.09,3.09,0,0,1-1,0A1,1,0,0,1,1190.68,128.92Z" transform="translate(0)"/><path class="cls-1" d="M1927.71,156.42c-.35,0-.73,0-1-.33.21-.38.6-.33.93-.41C1927.8,156,1927.82,156.42,1927.71,156.42Z" transform="translate(0)"/><path class="cls-1" d="M436.18,94.81a7.18,7.18,0,0,1-.87,1c0-.22,0-.44,0-.66a.61.61,0,0,1,.28-.54A.39.39,0,0,1,436.18,94.81Z" transform="translate(0)"/><path class="cls-1" d="M1285.58,93.07a.42.42,0,0,1-.22-.57c0-.08.17-.13.26-.2a.37.37,0,0,1,.21.55C1285.79,92.94,1285.67,93,1285.58,93.07Z" transform="translate(0)"/><path class="cls-1" d="M1290.2,74.74a.42.42,0,0,1,.58-.22c.09,0,.15.17.22.25a.42.42,0,0,1-.58.22C1290.33,74.94,1290.27,74.82,1290.2,74.74Z" transform="translate(0)"/><path class="cls-1" d="M442.3,85.82l-1.75-.07a.8.8,0,0,1,.53-.5,1,1,0,0,1,.73,0A.76.76,0,0,1,442.3,85.82Z" transform="translate(0)"/><path class="cls-1" d="M1190.06,125.88a1.31,1.31,0,0,1-.63.62A.79.79,0,0,1,1190.06,125.88Z" transform="translate(0)"/><path class="cls-1" d="M1168.53,131.05l.92-.64a1.83,1.83,0,0,1-.16.26C1169.06,131,1169,131,1168.53,131.05Z" transform="translate(0)"/><path class="cls-1" d="M1166.91,130.38l.82.66c-.44-.08-.5-.11-.7-.4A2.06,2.06,0,0,1,1166.91,130.38Z" transform="translate(0)"/><path class="cls-1" d="M1281.41,97.57c-.22.58-.42.53-.78.59A1,1,0,0,1,1281.41,97.57Z" transform="translate(0)"/><path class="cls-1" d="M1189.76,128.16a3.14,3.14,0,0,1,1,.78.74.74,0,0,1-.6-.23C1190,128.54,1189.89,128.34,1189.76,128.16Z" transform="translate(0)"/><path class="cls-1" d="M1170.17,128.78l-.86-.6A.77.77,0,0,1,1170.17,128.78Z" transform="translate(0)"/><path class="cls-1" d="M1271.06,113.47a5,5,0,0,1-1.19-.8A3,3,0,0,1,1271.06,113.47Z" transform="translate(0)"/><path class="cls-1" d="M427.76,88.57c.08-.07.17-.18.24-.18s.13.15.19.23-.17.18-.24.17S427.82,88.65,427.76,88.57Z" transform="translate(0)"/><path class="cls-1" d="M1287.27,112.49l.15.15-.22-.13S1287.27,112.49,1287.27,112.49Z" transform="translate(0)"/><path class="cls-1" d="M1187.73,127.43a4,4,0,0,1,0,.49c-.24.06-.47,0-.47-.25S1187.49,127.36,1187.73,127.43Z" transform="translate(0)"/><path class="cls-1" d="M1725.76,115.77l-.62-.75C1725.51,115.13,1725.8,115.31,1725.76,115.77Z" transform="translate(0)"/><path class="cls-1" d="M435.31,95.84a2.27,2.27,0,0,1-.64.74A1.08,1.08,0,0,1,435.31,95.84Z" transform="translate(0)"/><path class="cls-1" d="M1261.53,124.59c.08-.06.17-.18.24-.17s.13.14.19.22-.16.17-.24.16S1261.6,124.66,1261.53,124.59Z" transform="translate(0)"/><path class="cls-1" d="M1282.91,120.39Z" transform="translate(0)"/><path class="cls-1" d="M818.35,167.14a.76.76,0,0,1,.64.28,1.16,1.16,0,0,1-.24,1.62,1.11,1.11,0,0,1-1.3-.39,1.25,1.25,0,0,1-.12-.34.83.83,0,0,1,.65-1.11A2.38,2.38,0,0,1,818.35,167.14Z" transform="translate(0)"/><path class="cls-1" d="M800.67,168a1.67,1.67,0,0,1-1-.32.62.62,0,0,1-.26-.66.73.73,0,0,1,.36-.6,2,2,0,0,1,1.8-.11,1.4,1.4,0,0,1,.56.47c.15.2-.09.87-.34,1a3.62,3.62,0,0,1-.7.24A.91.91,0,0,1,800.67,168Z" transform="translate(0)"/><path class="cls-1" d="M378.94,100.35c-.25,0-.5,0-.76,0a3.27,3.27,0,0,1-1.77-.52c.38,0,.76,0,1.13,0A2.47,2.47,0,0,1,378.94,100.35Z" transform="translate(0)"/><path class="cls-1" d="M1068.58,145.52c-.12,0-.25,0-.37,0a.8.8,0,0,1-.65-.28,1.25,1.25,0,0,1-.12-.34A2.34,2.34,0,0,1,1068.58,145.52Z" transform="translate(0)"/><path class="cls-1" d="M430.06,103.65a1.78,1.78,0,0,1,.67,1.48c0,.23,0,.45,0,.68a1.49,1.49,0,0,1-.65-1.14C430,104.33,430.05,104,430.06,103.65Z" transform="translate(0)"/><path class="cls-1" d="M1279.92,92.71c-.17.16-.33.32-.51.46a.41.41,0,0,1-.58,0s0-.19.1-.23a.64.64,0,0,1,.31-.11l.68-.12Z" transform="translate(0)"/></svg>